<svg width="24" height="24" viewBox="0 0 24 24" fill="none" xmlns="http://www.w3.org/2000/svg">
<g clip-path="url(#clip0_2832_1014)">
<path opacity="0.4" d="M10.0688 2.81998L3.1388 8.36997C2.3588 8.98997 1.8588 10.3 2.0288 11.28L3.3588 19.24C3.5988 20.66 4.9588 21.81 6.3988 21.81H17.5988C19.0288 21.81 20.3988 20.65 20.6388 19.24L21.9688 11.28C22.1288 10.3 21.6288 8.98997 20.8588 8.36997L13.9288 2.82996C12.8588 1.96996 11.1288 1.96998 10.0688 2.81998Z" fill="#5B6B79"/>
<path d="M11.999 15.5C13.3797 15.5 14.499 14.3807 14.499 13C14.499 11.6193 13.3797 10.5 11.999 10.5C10.6183 10.5 9.49902 11.6193 9.49902 13C9.49902 14.3807 10.6183 15.5 11.999 15.5Z" fill="#5B6B79"/>
</g>
<defs>
<clipPath id="clip0_2832_1014">
<rect x="-0.000976562" width="24" height="24" rx="8" fill="white"/>
</clipPath>
</defs>
</svg>
