<svg width="20" height="20" viewBox="0 0 20 20" fill="none" xmlns="http://www.w3.org/2000/svg">
<path d="M16.1158 12.075L15.2825 10.6917C15.1075 10.3834 14.9491 9.80002 14.9491 9.45835V7.35002C14.9491 5.39169 13.7991 3.70002 12.1408 2.90835C11.7075 2.14169 10.9075 1.66669 9.99081 1.66669C9.08247 1.66669 8.26581 2.15835 7.83247 2.93335C6.20747 3.74169 5.08247 5.41669 5.08247 7.35002V9.45835C5.08247 9.80002 4.92414 10.3834 4.74914 10.6834L3.90747 12.075C3.57414 12.6334 3.49914 13.25 3.70747 13.8167C3.90747 14.375 4.38247 14.8084 4.99914 15.0167C6.61581 15.5667 8.31581 15.8334 10.0158 15.8334C11.7158 15.8334 13.4158 15.5667 15.0325 15.025C15.6158 14.8334 16.0658 14.3917 16.2825 13.8167C16.4991 13.2417 16.4408 12.6084 16.1158 12.075Z" fill="#5B6B79"/>
<path d="M12.3573 16.675C12.0073 17.6417 11.0823 18.3334 9.99893 18.3334C9.34059 18.3334 8.69059 18.0667 8.23226 17.5917C7.96559 17.3417 7.76559 17.0084 7.64893 16.6667C7.75726 16.6834 7.86559 16.6917 7.98226 16.7084C8.17393 16.7334 8.37393 16.7584 8.57393 16.775C9.04893 16.8167 9.53226 16.8417 10.0156 16.8417C10.4906 16.8417 10.9656 16.8167 11.4323 16.775C11.6073 16.7584 11.7823 16.75 11.9489 16.725C12.0823 16.7084 12.2156 16.6917 12.3573 16.675Z" fill="#5B6B79"/>
</svg>
