<svg width="21" height="20" viewBox="0 0 21 20" fill="none" xmlns="http://www.w3.org/2000/svg">
<path d="M8.38314 9.05835C8.2998 9.05002 8.1998 9.05002 8.10814 9.05835C6.1248 8.99169 4.5498 7.36669 4.5498 5.36669C4.5498 3.32502 6.1998 1.66669 8.2498 1.66669C10.2915 1.66669 11.9498 3.32502 11.9498 5.36669C11.9415 7.36669 10.3665 8.99169 8.38314 9.05835Z" stroke="#DC2626" stroke-width="1.5" stroke-linecap="round" stroke-linejoin="round"/>
<path opacity="0.4" d="M14.4252 3.33331C16.0419 3.33331 17.3419 4.64165 17.3419 6.24998C17.3419 7.82498 16.0919 9.10831 14.5336 9.16665C14.4669 9.15831 14.3919 9.15831 14.3169 9.16665" stroke="#DC2626" stroke-width="1.5" stroke-linecap="round" stroke-linejoin="round"/>
<path d="M4.2166 12.1333C2.19993 13.4833 2.19993 15.6833 4.2166 17.025C6.50827 18.5583 10.2666 18.5583 12.5583 17.025C14.5749 15.675 14.5749 13.475 12.5583 12.1333C10.2749 10.6083 6.5166 10.6083 4.2166 12.1333Z" stroke="#DC2626" stroke-width="1.5" stroke-linecap="round" stroke-linejoin="round"/>
<path opacity="0.4" d="M16.0332 16.6667C16.6332 16.5417 17.1999 16.3 17.6665 15.9417C18.9665 14.9667 18.9665 13.3584 17.6665 12.3834C17.2082 12.0334 16.6499 11.8 16.0582 11.6667" stroke="#DC2626" stroke-width="1.5" stroke-linecap="round" stroke-linejoin="round"/>
</svg>
