<svg width="70" height="28" viewBox="0 0 70 28" fill="none" xmlns="http://www.w3.org/2000/svg">
<path opacity="0.964" fill-rule="evenodd" clip-rule="evenodd" d="M41.4373 2.00403C41.5317 2.00403 41.6264 2.00403 41.7207 2.00403C41.7207 5.44532 41.7207 8.88662 41.7207 12.3279C40.7215 12.3414 39.7231 12.3279 38.7248 12.2874C38.4325 11.3945 37.8792 10.713 37.0649 10.2429C36.0149 9.88929 35.0162 9.99727 34.0689 10.5668C33.5372 11.0432 33.1998 11.6303 33.0568 12.3279C32.0618 12.3412 31.0699 12.3277 30.0811 12.2874C30.3044 10.8891 30.8577 9.63407 31.741 8.52225C33.2949 6.74334 35.1909 6.22379 37.4292 6.96354C37.9377 7.16735 38.3628 7.48451 38.7045 7.91496C38.718 6.34949 38.7315 4.78407 38.745 3.2186C39.6479 2.81763 40.5454 2.41277 41.4373 2.00403Z" fill="#040404"/>
<path opacity="0.963" fill-rule="evenodd" clip-rule="evenodd" d="M54.919 2.00403C55.0133 2.00403 55.108 2.00403 55.2024 2.00403C55.2024 5.44532 55.2024 8.88662 55.2024 12.3279C54.2032 12.3414 53.2048 12.3279 52.2064 12.2874C51.8987 11.352 51.3052 10.6571 50.425 10.2024C49.4101 9.89443 48.4518 10.0159 47.5505 10.5668C46.9979 11.0314 46.6607 11.6184 46.5384 12.3279C45.5262 12.3279 44.5141 12.3279 43.502 12.3279C43.8254 10.5139 44.6619 8.98217 46.0121 7.73277C47.004 6.9401 48.1307 6.58249 49.3926 6.6599C50.0181 6.70002 50.619 6.84172 51.1943 7.085C51.5744 7.3031 51.9048 7.57978 52.1862 7.91496C52.1995 6.34949 52.2133 4.78407 52.2266 3.2186C53.1258 2.80905 54.0234 2.40419 54.919 2.00403Z" fill="#030403"/>
<path fill-rule="evenodd" clip-rule="evenodd" d="M19.7367 3.46152C19.7367 3.47502 19.7367 3.48852 19.7367 3.50201C19.2374 3.50201 18.7381 3.50201 18.2388 3.50201C18.7369 3.42401 19.2363 3.41052 19.7367 3.46152Z" fill="#656464"/>
<path opacity="0.995" fill-rule="evenodd" clip-rule="evenodd" d="M18.2391 3.50201C18.7384 3.50201 19.2377 3.50201 19.737 3.50201C20.4759 3.53267 21.2047 3.62713 21.9233 3.78541C21.9368 3.78541 21.9503 3.78541 21.9638 3.78541C21.9683 3.81041 21.9817 3.83065 22.0042 3.84614C22.1668 3.88005 22.3287 3.91379 22.4901 3.94736C22.5036 3.94736 22.5171 3.94736 22.5306 3.94736C22.6352 4.02722 22.7566 4.06768 22.8949 4.06882C23.143 4.21946 23.4129 4.32744 23.7046 4.3927C23.7618 4.47525 23.8427 4.51574 23.9476 4.51416C24.0047 4.59671 24.0857 4.6372 24.1905 4.63562C24.2306 4.62865 24.2576 4.64218 24.2714 4.6761C24.3458 4.76064 24.4402 4.81461 24.5548 4.83805C24.595 4.83108 24.622 4.84461 24.6358 4.87853C24.6827 4.94938 24.7502 4.98987 24.8382 4.99999C24.8852 5.07084 24.9527 5.11133 25.0407 5.12145C25.0598 5.17837 25.1003 5.20537 25.1621 5.20242C25.1813 5.25934 25.2218 5.28635 25.2836 5.28339C25.3027 5.34031 25.3432 5.36732 25.4051 5.36436C25.4359 5.4357 25.4899 5.47618 25.567 5.48582C25.5861 5.54274 25.6266 5.56975 25.6885 5.56679C25.7193 5.63813 25.7733 5.67861 25.8504 5.68825C25.8909 5.70173 25.9179 5.72873 25.9314 5.76922C25.9505 5.82614 25.991 5.85315 26.0528 5.85019C26.0798 5.85019 26.0933 5.86367 26.0933 5.89068C26.1372 5.97517 26.2047 6.02914 26.2957 6.05262C26.3776 6.17489 26.4856 6.26938 26.6196 6.33602C26.6466 6.444 26.7141 6.51145 26.8221 6.53845C26.8625 6.55193 26.8895 6.57894 26.903 6.61942C27.0354 6.81942 27.1974 6.99485 27.3889 7.14574C27.4261 7.25056 27.4936 7.33153 27.5913 7.38865C27.6285 7.49347 27.696 7.57444 27.7937 7.63157C27.8034 7.70865 27.8438 7.76266 27.9152 7.79351C27.9248 7.8706 27.9653 7.92461 28.0366 7.95546C28.0337 8.01728 28.0607 8.05776 28.1176 8.07691C28.1146 8.13873 28.1417 8.17922 28.1986 8.19837C28.2082 8.27546 28.2487 8.32946 28.32 8.36031C28.354 8.37416 28.3675 8.40112 28.3605 8.44129C28.3576 8.50311 28.3846 8.54359 28.4415 8.56274C28.4385 8.62456 28.4655 8.66505 28.5225 8.6842C28.5564 8.69805 28.5699 8.72501 28.5629 8.76517C28.56 8.82699 28.587 8.86748 28.6439 8.88663C28.6778 8.90048 28.6914 8.92744 28.6844 8.9676C28.7078 9.08222 28.7618 9.17667 28.8463 9.251C28.8939 9.29205 28.9208 9.34602 28.9273 9.41295C28.9349 9.49651 28.9551 9.57748 28.988 9.65586C29.0455 9.75679 29.1062 9.85124 29.1702 9.93926C29.2282 9.99108 29.2552 10.0586 29.2512 10.1417C29.2614 10.2966 29.3154 10.4316 29.4131 10.5465C29.4492 10.7759 29.5167 10.9919 29.6156 11.1943C29.6058 11.2914 29.6328 11.3724 29.6966 11.4372C29.7434 11.5495 29.7704 11.671 29.7775 11.8016C29.7882 12.015 29.8287 12.2174 29.899 12.4089C29.899 12.4629 29.899 12.5169 29.899 12.5708C30.2229 12.5708 30.5468 12.5708 30.8706 12.5708C39.5346 12.5708 48.1986 12.5708 56.8625 12.5708C56.8625 13.8394 56.8625 15.108 56.8625 16.3765C47.8719 16.3631 38.884 16.3765 29.899 16.417C29.8711 16.3654 29.8373 16.3654 29.7978 16.417C29.7643 16.5503 29.7441 16.6853 29.737 16.8219C29.6715 16.959 29.631 17.1074 29.6156 17.2672C29.6264 17.3319 29.6129 17.3859 29.5751 17.4291C29.4631 17.6433 29.3822 17.8727 29.3322 18.1174C29.3322 18.1309 29.3322 18.1444 29.3322 18.1579C29.2672 18.1897 29.2402 18.2437 29.2512 18.3198C29.1203 18.55 29.0123 18.7929 28.9273 19.0486C28.9343 19.0887 28.9208 19.1157 28.8868 19.1295C28.7887 19.2311 28.7212 19.3525 28.6844 19.4939C28.6914 19.5341 28.6778 19.561 28.6439 19.5749C28.587 19.594 28.56 19.6345 28.5629 19.6963C28.5699 19.7365 28.5564 19.7635 28.5225 19.7773C28.4655 19.7965 28.4385 19.837 28.4415 19.8988C28.3706 19.9457 28.3302 20.0132 28.32 20.1012C28.2631 20.1204 28.2361 20.1608 28.2391 20.2227C28.1794 20.2606 28.1389 20.3146 28.1176 20.3846C28.0468 20.4315 28.0063 20.499 27.9961 20.587C27.9827 20.6275 27.9557 20.6545 27.9152 20.668C27.8582 20.6872 27.8312 20.7276 27.8342 20.7895C27.8342 20.8165 27.8207 20.8299 27.7937 20.8299C27.7368 20.8491 27.7098 20.8896 27.7127 20.9514C27.6993 20.9919 27.6723 21.0189 27.6318 21.0324C27.5604 21.0632 27.52 21.1172 27.5103 21.1943C27.5103 21.2213 27.4968 21.2348 27.4698 21.2348C27.3721 21.2919 27.3046 21.3729 27.2674 21.4777C27.011 21.7611 26.7411 22.031 26.4577 22.2874C26.3959 22.2845 26.3554 22.3115 26.3362 22.3684C26.3092 22.4224 26.2687 22.4629 26.2148 22.4899C26.1377 22.4995 26.0837 22.54 26.0528 22.6113C26.0528 22.6383 26.0393 22.6518 26.0123 22.6518C25.9353 22.6614 25.8812 22.7019 25.8504 22.7733C25.8504 22.8003 25.8369 22.8138 25.8099 22.8138C25.7481 22.8108 25.7076 22.8378 25.6885 22.8947C25.6885 22.9217 25.675 22.9352 25.648 22.9352C25.5527 22.9692 25.4717 23.0232 25.4051 23.0972C25.4051 23.1242 25.3916 23.1376 25.3646 23.1376C25.3027 23.1347 25.2623 23.1617 25.2431 23.2186C25.2111 23.2551 25.1706 23.2821 25.1217 23.2996C25.0336 23.3097 24.9661 23.3502 24.9192 23.421C24.8574 23.4181 24.8169 23.4451 24.7978 23.502C24.7567 23.5495 24.7027 23.5765 24.6358 23.583C24.4407 23.6467 24.2653 23.7412 24.1095 23.8664C24.0156 23.8863 23.9346 23.9268 23.8666 23.9878C23.6346 24.0514 23.4187 24.1459 23.2188 24.2712C23.1298 24.2559 23.0623 24.2829 23.0164 24.3522C22.9238 24.3561 22.8429 24.3831 22.7735 24.4332C22.6845 24.4178 22.617 24.4448 22.571 24.5142C22.5576 24.5142 22.544 24.5142 22.5306 24.5142C21.9212 24.6602 21.3139 24.7952 20.7087 24.919C20.4179 24.9299 20.1345 24.9569 19.8585 25C19.248 25.0128 18.6408 24.9993 18.0366 24.9595C17.6668 24.8699 17.2889 24.8024 16.903 24.7571C16.5327 24.6374 16.1548 24.5294 15.7694 24.4332C15.7 24.3831 15.6191 24.3561 15.5265 24.3522C15.4495 24.3402 15.382 24.3132 15.3241 24.2712C15.2562 24.1768 15.1618 24.1363 15.0407 24.1498C14.9889 24.0919 14.9214 24.0648 14.8383 24.0688C14.7934 23.9689 14.7125 23.9284 14.5953 23.9474C14.5543 23.8998 14.5003 23.8729 14.4334 23.8664C14.3125 23.8329 14.2046 23.779 14.1095 23.7044C14.0626 23.6336 13.9951 23.5931 13.9071 23.583C13.8669 23.5899 13.84 23.5764 13.8261 23.5425C13.807 23.4856 13.7665 23.4586 13.7046 23.4615C13.6645 23.4685 13.6375 23.455 13.6237 23.421C13.6045 23.3641 13.564 23.3371 13.5022 23.3401C13.4831 23.2831 13.4426 23.2561 13.3808 23.2591C13.3616 23.2022 13.3211 23.1752 13.2593 23.1781C13.2402 23.1212 13.1997 23.0942 13.1378 23.0972C13.107 23.0258 13.053 22.9853 12.9759 22.9757C12.9568 22.9188 12.9163 22.8918 12.8544 22.8947C12.8105 22.8102 12.7431 22.7563 12.652 22.7328C12.6081 22.6483 12.5406 22.5943 12.4496 22.5708C12.3925 22.4731 12.3115 22.4056 12.2067 22.3684C12.0289 22.15 11.8264 21.9611 11.5994 21.8016C11.5319 21.7611 11.4779 21.7072 11.4374 21.6397C11.3865 21.5212 11.3056 21.4267 11.1945 21.3563C11.154 21.3428 11.127 21.3158 11.1136 21.2753C11.0605 21.1549 10.9795 21.0604 10.8706 20.9919C10.8736 20.9301 10.8466 20.8896 10.7897 20.8704C10.7492 20.857 10.7222 20.8299 10.7087 20.7895C10.7117 20.7276 10.6846 20.6872 10.6277 20.668C10.6181 20.5909 10.5776 20.5369 10.5063 20.5061C10.5092 20.4442 10.4822 20.4038 10.4253 20.3846C10.3913 20.2893 10.3373 20.2084 10.2634 20.1417C10.2663 20.0799 10.2393 20.0394 10.1824 20.0202C10.1853 19.9584 10.1583 19.9179 10.1014 19.8988C10.078 19.7842 10.024 19.6897 9.93946 19.6154C9.91602 19.5008 9.86206 19.4063 9.77752 19.332C9.77104 19.265 9.74408 19.2111 9.69655 19.17C9.63837 18.9947 9.5574 18.8328 9.45363 18.6842C9.36874 18.402 9.2608 18.1321 9.12975 17.8745C9.13951 17.7774 9.1125 17.6964 9.04878 17.6316C8.71683 16.5023 8.54137 15.3484 8.52246 14.17C8.53311 13.7717 8.54659 13.3736 8.56295 12.9757C8.56295 12.9622 8.56295 12.9487 8.56295 12.9352C8.66594 12.4127 8.77392 11.8864 8.88683 11.3563C8.94449 11.2747 8.97145 11.1802 8.96781 11.0729C9.06639 10.9288 9.12036 10.7669 9.12975 10.587C9.217 10.5013 9.25748 10.3934 9.25121 10.2631C9.30914 10.2113 9.33615 10.1438 9.33218 10.0607C9.32521 10.0206 9.33874 9.99359 9.37266 9.97975C9.4306 9.92793 9.4576 9.86044 9.45363 9.77732C9.46011 9.71039 9.48708 9.65643 9.53461 9.61537C9.59566 9.54732 9.63615 9.46635 9.65606 9.37246C9.6491 9.3323 9.66262 9.30533 9.69655 9.29149C9.74408 9.25043 9.77104 9.19647 9.77752 9.12954C9.86088 9.05829 9.91485 8.9638 9.93946 8.84614C10.0271 8.75214 10.0946 8.64416 10.1419 8.52226C10.1349 8.4821 10.1485 8.45513 10.1824 8.44129C10.2393 8.42214 10.2663 8.38165 10.2634 8.31983C10.3203 8.30068 10.3473 8.26019 10.3443 8.19837C10.4157 8.16752 10.4561 8.11351 10.4658 8.03643C10.5227 8.01728 10.5497 7.97679 10.5468 7.91497C10.6473 7.82185 10.7283 7.71388 10.7897 7.59108C10.8874 7.53396 10.9549 7.45299 10.9921 7.34817C11.3419 6.98489 11.6927 6.62052 12.0447 6.25505C12.0987 6.22805 12.1392 6.18756 12.1662 6.13359C12.271 6.09639 12.352 6.0289 12.4091 5.93116C12.5002 5.90768 12.5676 5.85371 12.6115 5.76922C12.7553 5.704 12.8768 5.60954 12.9759 5.48582C13.0377 5.48878 13.0782 5.46177 13.0974 5.40485C13.1165 5.34793 13.157 5.32092 13.2188 5.32388C13.3141 5.28987 13.3951 5.23586 13.4617 5.16193C13.4809 5.10501 13.5214 5.07801 13.5832 5.08096C13.645 5.08392 13.6855 5.05691 13.7046 4.99999C13.8193 4.97655 13.9137 4.92258 13.988 4.83805C14.055 4.83157 14.1089 4.80461 14.15 4.75707C14.1638 4.72315 14.1908 4.70963 14.231 4.71659C14.2928 4.71954 14.3333 4.69254 14.3524 4.63562C14.4624 4.64023 14.5434 4.59975 14.5953 4.51416C14.6785 4.51813 14.7459 4.49112 14.7978 4.43319C14.8917 4.41327 14.9726 4.37278 15.0407 4.31173C15.0986 4.26975 15.1661 4.24274 15.2431 4.23076C15.5278 4.16744 15.7977 4.07295 16.0528 3.94736C16.2619 3.95221 16.4508 3.89823 16.6196 3.78541C16.8067 3.77569 16.9821 3.7352 17.1459 3.66396C17.5177 3.62299 17.8821 3.56901 18.2391 3.50201ZM18.482 6.41699C19.0218 6.41699 19.5616 6.41699 20.1014 6.41699C20.2813 6.46967 20.4702 6.49667 20.6682 6.49797C20.6727 6.52295 20.6862 6.54319 20.7087 6.55869C21.0835 6.64404 21.4478 6.75873 21.8018 6.90282C21.9772 7.03112 22.1662 7.1391 22.3686 7.22671C22.3878 7.28363 22.4283 7.31064 22.4901 7.30768C22.5092 7.36461 22.5497 7.39161 22.6115 7.38865C22.683 7.49829 22.7775 7.57926 22.8949 7.63157C23.11 7.86015 23.3259 8.08958 23.5427 8.31983C23.7048 8.57574 23.8802 8.81865 24.069 9.04857C24.2327 9.40266 24.3946 9.75351 24.5548 10.1012C24.5803 10.2185 24.6208 10.3265 24.6763 10.4251C24.7184 10.6209 24.7724 10.8099 24.8382 10.9919C24.8886 11.264 24.9426 11.5339 25.0002 11.8016C25.0002 11.8151 25.0002 11.8286 25.0002 11.8421C25.0527 12.2034 25.0864 12.5678 25.1014 12.9352C25.1217 13.9203 25.1284 14.9054 25.1217 15.8907C22.1122 15.8839 19.1027 15.8907 16.0933 15.9109C16.0398 16.0702 16.0398 16.2254 16.0933 16.3765C16.0776 16.5001 16.1045 16.6081 16.1743 16.7004C16.1634 16.7651 16.177 16.8191 16.2148 16.8623C16.387 17.3967 16.6974 17.8285 17.1459 18.1579C17.2187 18.2551 17.3131 18.3225 17.4293 18.3603C17.4293 18.3873 17.4428 18.4008 17.4698 18.4008C17.58 18.4829 17.7014 18.5503 17.8342 18.6032C17.8661 18.6682 17.92 18.6952 17.9961 18.6842C18.0248 18.7208 18.0653 18.7343 18.1176 18.7247C18.378 18.8606 18.6614 18.928 18.9678 18.9271C19.0834 18.9881 19.2117 19.015 19.3524 19.0081C19.5182 19.0109 19.6734 18.9839 19.818 18.9271C20.1843 18.9378 20.5217 18.8568 20.8302 18.6842C20.892 18.6872 20.9325 18.6602 20.9516 18.6032C21.2502 18.4934 21.4931 18.3045 21.6804 18.0364C21.7113 18.0814 21.7518 18.1085 21.8018 18.1174C21.8856 18.2418 21.9936 18.3363 22.1257 18.4008C22.289 18.6046 22.4779 18.78 22.6925 18.9271C22.706 18.9676 22.733 18.9946 22.7735 19.0081C22.9244 19.1996 23.0998 19.3615 23.2998 19.4939C23.3268 19.5479 23.3673 19.5884 23.4212 19.6154C23.4826 19.6836 23.5366 19.7578 23.5832 19.838C23.5638 19.8908 23.5368 19.938 23.5022 19.9797C23.3925 20.0894 23.2981 20.2108 23.2188 20.3441C23.0954 20.4406 22.9874 20.5485 22.8949 20.668C22.6247 20.857 22.3548 21.046 22.0852 21.2348C21.9261 21.3009 21.7777 21.3819 21.6399 21.4777C21.5473 21.4816 21.4663 21.5086 21.397 21.5587C21.0434 21.6535 20.6926 21.748 20.3443 21.8421C20.2275 21.8297 20.1195 21.8432 20.0204 21.8826C19.3585 21.8908 18.6972 21.8773 18.0366 21.8421C17.7222 21.7549 17.3983 21.6874 17.065 21.6397C16.976 21.5629 16.868 21.5224 16.7411 21.5182C16.6559 21.461 16.5614 21.4206 16.4577 21.3968C16.3551 21.3353 16.2471 21.2814 16.1338 21.2348C15.9384 21.1033 15.736 20.9819 15.5265 20.8704C15.4694 20.7727 15.3884 20.7052 15.2836 20.668C15.2836 20.641 15.2701 20.6275 15.2431 20.6275C15.0769 20.4442 14.9014 20.2688 14.7168 20.1012C14.6774 19.9945 14.6099 19.9136 14.5144 19.8583C14.4994 19.7463 14.4454 19.6653 14.3524 19.6154C14.3374 19.5033 14.2834 19.4224 14.1905 19.3725C14.2014 19.2963 14.1744 19.2424 14.1095 19.2105C14.077 19.0914 14.0229 18.9834 13.9476 18.8866C13.909 18.7572 13.8551 18.6357 13.7856 18.5223C13.7856 18.5088 13.7856 18.4953 13.7856 18.4818C13.7547 18.3798 13.7142 18.2854 13.6642 18.1984C13.6478 18.0775 13.6074 17.9695 13.5427 17.8745C13.5385 17.7244 13.498 17.5895 13.4212 17.4696C13.4097 17.1831 13.3557 16.9131 13.2593 16.6599C13.1838 16.123 13.1434 15.5831 13.1378 15.0405C13.1061 14.3666 13.1061 13.6919 13.1378 13.0162C13.1689 12.9853 13.1892 12.9448 13.1986 12.8947C13.2187 12.7604 13.2255 12.6255 13.2188 12.4899C13.2188 12.4764 13.2188 12.4629 13.2188 12.4494C13.2762 12.1569 13.3302 11.86 13.3808 11.5587C13.4419 11.4355 13.4689 11.3005 13.4617 11.1538C13.5589 10.9843 13.6264 10.7953 13.6642 10.587C13.8035 10.2885 13.9249 9.97813 14.0285 9.65586C14.0912 9.64286 14.1182 9.60238 14.1095 9.5344C14.1929 9.42347 14.2604 9.30201 14.3119 9.17003C14.4221 9.03262 14.5166 8.88416 14.5953 8.72469C14.74 8.55691 14.8749 8.38145 15.0002 8.19837C15.1756 8.04991 15.3376 7.88797 15.486 7.71254C15.6628 7.61068 15.8247 7.48922 15.9719 7.34817C16.0785 7.29509 16.173 7.2276 16.2553 7.14574C16.4312 7.09137 16.5931 7.01039 16.7411 6.90282C16.9426 6.84485 17.1315 6.76388 17.3079 6.65991C17.4264 6.65728 17.5344 6.63027 17.6318 6.57894C17.8134 6.5478 17.9889 6.50732 18.1581 6.45748C18.2749 6.46987 18.3829 6.45639 18.482 6.41699Z" fill="#080505"/>
<path opacity="0.412" fill-rule="evenodd" clip-rule="evenodd" d="M18.2386 3.50201C17.8817 3.56901 17.5173 3.62299 17.1455 3.66396C17.4972 3.56083 17.8615 3.50685 18.2386 3.50201Z" fill="#8B8A8A"/>
<path opacity="0.325" fill-rule="evenodd" clip-rule="evenodd" d="M19.7368 3.50202C19.7368 3.48853 19.7368 3.47503 19.7368 3.46154C20.4879 3.45745 21.2166 3.56541 21.9231 3.78542C21.2045 3.62714 20.4757 3.53268 19.7368 3.50202Z" fill="#858484"/>
<path opacity="0.308" fill-rule="evenodd" clip-rule="evenodd" d="M17.1459 3.66394C16.9821 3.73519 16.8067 3.77567 16.6196 3.7854C16.7822 3.70956 16.9576 3.66907 17.1459 3.66394Z" fill="#858383"/>
<path opacity="0.337" fill-rule="evenodd" clip-rule="evenodd" d="M21.9634 3.7854C22.1527 3.80888 22.3282 3.86286 22.4897 3.94734C22.3283 3.91377 22.1664 3.88003 22.0039 3.84613C21.9814 3.83064 21.9679 3.8104 21.9634 3.7854Z" fill="#7D7B7B"/>
<path fill-rule="evenodd" clip-rule="evenodd" d="M16.6195 3.7854C16.4507 3.89821 16.2618 3.9522 16.0527 3.94734C16.2265 3.8565 16.4155 3.80252 16.6195 3.7854Z" fill="#535252"/>
<path fill-rule="evenodd" clip-rule="evenodd" d="M19.8177 4.02835C19.2907 4.02185 18.7644 4.03535 18.2388 4.06884C18.2976 4.03637 18.365 4.01613 18.4412 4.00811C18.9071 3.97467 19.3659 3.98142 19.8177 4.02835Z" fill="#530A0D"/>
<path opacity="0.38" fill-rule="evenodd" clip-rule="evenodd" d="M22.5303 3.94739C22.6633 3.96472 22.7847 4.00521 22.8946 4.06885C22.7563 4.06771 22.6349 4.02725 22.5303 3.94739Z" fill="#8F8D8D"/>
<path opacity="0.835" fill-rule="evenodd" clip-rule="evenodd" d="M16.0524 3.94739C15.7973 4.07297 15.5273 4.16747 15.2427 4.23079C15.4936 4.09225 15.7636 3.99779 16.0524 3.94739Z" fill="#747272"/>
<path fill-rule="evenodd" clip-rule="evenodd" d="M19.8176 4.02832C20.0211 4.02844 20.2235 4.04194 20.4249 4.06881C20.4418 4.09804 20.4687 4.11828 20.5058 4.12954C20.7483 4.15783 20.9912 4.17808 21.2346 4.19026C21.5237 4.23192 21.8071 4.29937 22.0848 4.39269C22.1798 4.45735 22.2878 4.49783 22.4087 4.51415C25.1435 5.44164 27.1746 7.19601 28.5018 9.77731C28.9099 10.6135 29.1865 11.4907 29.3317 12.4089C29.354 12.5428 29.3675 12.6777 29.3722 12.8137C38.4208 12.8701 47.4763 12.8971 56.5382 12.8947C56.5382 13.9608 56.5382 15.027 56.5382 16.0931C47.4694 16.0863 38.4006 16.0931 29.3317 16.1133C38.414 16.1336 47.4965 16.1403 56.5787 16.1336C56.5787 16.1471 56.5787 16.1606 56.5787 16.1741C47.4828 16.1741 38.3871 16.1741 29.2913 16.1741C29.2707 16.3506 29.2438 16.526 29.2103 16.7004C29.1853 16.7049 29.1651 16.7184 29.1496 16.7409C29.1214 16.8614 29.1011 16.9829 29.0888 17.1052C29.0753 17.1592 29.0618 17.2132 29.0483 17.2672C28.9779 17.3439 28.9374 17.4384 28.9269 17.5506C27.7064 20.856 25.4122 23.0355 22.0443 24.0891C21.7745 24.1544 21.5045 24.2151 21.2346 24.2712C20.7794 24.291 20.3341 24.345 19.8985 24.4332C19.003 24.4454 18.1123 24.3915 17.2265 24.2712C17.1832 24.2334 17.1293 24.2199 17.0645 24.2307C16.9926 24.1862 16.9116 24.1525 16.8216 24.1295C16.8621 24.1161 16.9026 24.1025 16.9431 24.0891C16.8735 24.075 16.806 24.0548 16.7406 24.0283C16.7136 24.0553 16.6867 24.0823 16.6597 24.1093C16.5576 24.0573 16.4497 24.0303 16.3358 24.0283C16.0444 23.9582 15.761 23.8637 15.4856 23.7449C15.4235 23.6743 15.3426 23.6338 15.2427 23.6235C13.3656 22.8197 11.8609 21.5646 10.7285 19.8583C10.2549 19.1355 9.88372 18.3663 9.61514 17.5506C9.58158 17.4164 9.54785 17.2814 9.51393 17.1457C9.49842 17.1232 9.47818 17.1097 9.4532 17.1052C9.45684 16.9979 9.42988 16.9034 9.37223 16.8218C9.08591 15.6261 8.99146 14.4115 9.08883 13.1781C9.15506 13.0279 9.18202 12.866 9.1698 12.6923C9.1698 12.6518 9.1698 12.6113 9.1698 12.5708C9.19903 12.5539 9.21927 12.5269 9.23053 12.4899C9.2687 12.2742 9.30247 12.0583 9.33174 11.8421C10.2243 8.5131 12.2486 6.14468 15.4046 4.73682C15.9643 4.49905 16.5446 4.33034 17.1455 4.23075C17.3833 4.20852 17.6128 4.16804 17.8338 4.10929C17.9603 4.06966 18.0952 4.05613 18.2386 4.06881C18.7642 4.03531 19.2905 4.02181 19.8176 4.02832ZM18.4815 6.41698C19.0213 6.41698 19.5612 6.41698 20.101 6.41698C20.2809 6.46966 20.4698 6.49666 20.6678 6.49796C20.6723 6.52294 20.6857 6.54318 20.7083 6.55868C21.083 6.64403 21.4474 6.75873 21.8014 6.90281C21.9768 7.03111 22.1657 7.13909 22.3682 7.2267C22.3873 7.28362 22.4278 7.31063 22.4896 7.30767C22.5088 7.3646 22.5493 7.3916 22.6111 7.38864C22.6826 7.49828 22.777 7.57925 22.8945 7.63156C23.1096 7.86014 23.3255 8.08958 23.5423 8.31982C23.7043 8.57573 23.8798 8.81864 24.0686 9.04856C24.2323 9.40265 24.3942 9.7535 24.5544 10.1012C24.5799 10.2185 24.6204 10.3265 24.6759 10.4251C24.718 10.6209 24.7719 10.8099 24.8378 10.9919C24.8882 11.264 24.9421 11.5339 24.9998 11.8016C24.9998 11.8151 24.9998 11.8286 24.9998 11.8421C25.0522 12.2034 25.086 12.5678 25.101 12.9352C25.1212 13.9203 25.128 14.9054 25.1212 15.8907C22.1117 15.8839 19.1023 15.8907 16.0929 15.9109C16.0394 16.0702 16.0394 16.2254 16.0929 16.3765C16.0771 16.5001 16.1041 16.6081 16.1738 16.7004C16.163 16.7651 16.1765 16.8191 16.2143 16.8623C16.3866 17.3967 16.697 17.8285 17.1455 18.1579C17.2182 18.255 17.3127 18.3225 17.4289 18.3603C17.4289 18.3873 17.4424 18.4008 17.4694 18.4008C17.5795 18.4829 17.701 18.5503 17.8338 18.6032C17.8656 18.6682 17.9196 18.6952 17.9957 18.6842C18.0244 18.7208 18.0649 18.7343 18.1172 18.7247C18.3776 18.8605 18.661 18.928 18.9674 18.9271C19.083 18.9881 19.2112 19.015 19.352 19.0081C19.5178 19.0109 19.673 18.9839 19.8176 18.9271C20.1838 18.9378 20.5212 18.8568 20.8297 18.6842C20.8915 18.6871 20.932 18.6601 20.9512 18.6032C21.2498 18.4934 21.4927 18.3045 21.6799 18.0364C21.7109 18.0814 21.7514 18.1084 21.8014 18.1174C21.8851 18.2418 21.9931 18.3363 22.1253 18.4008C22.2885 18.6046 22.4775 18.78 22.6921 18.9271C22.7055 18.9676 22.7326 18.9946 22.773 19.0081C22.9239 19.1996 23.0994 19.3615 23.2994 19.4939C23.3264 19.5479 23.3668 19.5884 23.4208 19.6154C23.4822 19.6836 23.5362 19.7578 23.5828 19.838C23.5634 19.8908 23.5364 19.938 23.5018 19.9797C23.3921 20.0894 23.2977 20.2108 23.2184 20.3441C23.095 20.4405 22.987 20.5485 22.8945 20.668C22.6243 20.857 22.3543 21.046 22.0848 21.2348C21.9257 21.3009 21.7772 21.3819 21.6394 21.4777C21.5469 21.4816 21.4659 21.5086 21.3965 21.5587C21.043 21.6535 20.6921 21.748 20.3439 21.8421C20.2271 21.8297 20.1191 21.8432 20.02 21.8826C19.3581 21.8908 18.6968 21.8773 18.0362 21.8421C17.7218 21.7549 17.3979 21.6874 17.0645 21.6397C16.9755 21.5629 16.8676 21.5224 16.7406 21.5182C16.6555 21.461 16.561 21.4205 16.4572 21.3967C16.3546 21.3353 16.2466 21.2814 16.1334 21.2348C15.938 21.1033 15.7355 20.9818 15.5261 20.8704C15.4689 20.7727 15.388 20.7052 15.2832 20.668C15.2832 20.641 15.2697 20.6275 15.2427 20.6275C15.0765 20.4442 14.901 20.2688 14.7164 20.1012C14.677 19.9945 14.6095 19.9135 14.5139 19.8583C14.4989 19.7463 14.4449 19.6653 14.352 19.6154C14.337 19.5033 14.283 19.4224 14.19 19.3724C14.201 19.2963 14.174 19.2424 14.1091 19.2105C14.0765 19.0914 14.0225 18.9834 13.9471 18.8866C13.9086 18.7572 13.8546 18.6357 13.7852 18.5222C13.7852 18.5088 13.7852 18.4952 13.7852 18.4818C13.7543 18.3798 13.7138 18.2854 13.6637 18.1984C13.6474 18.0775 13.6069 17.9695 13.5423 17.8745C13.5381 17.7244 13.4976 17.5895 13.4208 17.4696C13.4093 17.1831 13.3553 16.9131 13.2589 16.6599C13.1834 16.123 13.1429 15.5831 13.1374 15.0405C13.1056 14.3666 13.1056 13.6919 13.1374 13.0162C13.1685 12.9853 13.1887 12.9448 13.1981 12.8947C13.2183 12.7604 13.2251 12.6255 13.2184 12.4899C13.2184 12.4764 13.2184 12.4629 13.2184 12.4494C13.2757 12.1569 13.3297 11.86 13.3803 11.5587C13.4415 11.4354 13.4685 11.3005 13.4613 11.1538C13.5585 10.9843 13.626 10.7953 13.6637 10.587C13.803 10.2885 13.9245 9.97812 14.0281 9.65585C14.0908 9.64285 14.1178 9.60237 14.1091 9.53439C14.1925 9.42346 14.2599 9.302 14.3115 9.17002C14.4217 9.03261 14.5161 8.88415 14.5949 8.72468C14.7396 8.5569 14.8745 8.38144 14.9998 8.19836C15.1752 8.0499 15.3371 7.88796 15.4856 7.71253C15.6623 7.61067 15.8243 7.48921 15.9714 7.34816C16.0781 7.29508 16.1726 7.22759 16.2548 7.14573C16.4307 7.09136 16.5927 7.01039 16.7406 6.90281C16.9422 6.84484 17.1311 6.76387 17.3074 6.6599C17.426 6.65727 17.534 6.63026 17.6313 6.57893C17.813 6.54779 17.9884 6.50731 18.1577 6.45747C18.2745 6.46986 18.3824 6.45638 18.4815 6.41698Z" fill="#EA1E25"/>
<path fill-rule="evenodd" clip-rule="evenodd" d="M20.4253 4.06885C20.7038 4.08739 20.9738 4.12788 21.235 4.19031C20.9916 4.17812 20.7487 4.15788 20.5063 4.12958C20.4692 4.11832 20.4422 4.09808 20.4253 4.06885Z" fill="#8B1216"/>
<path opacity="0.349" fill-rule="evenodd" clip-rule="evenodd" d="M22.8945 4.06885C23.1836 4.13804 23.4536 4.24597 23.7042 4.39273C23.4125 4.32747 23.1426 4.2195 22.8945 4.06885Z" fill="#878585"/>
<path fill-rule="evenodd" clip-rule="evenodd" d="M17.8338 4.10931C17.6128 4.16806 17.3833 4.20854 17.1455 4.23077C17.1624 4.20154 17.1894 4.1813 17.2265 4.17004C17.4275 4.13312 17.6299 4.11288 17.8338 4.10931Z" fill="#750F13"/>
<path opacity="0.086" fill-rule="evenodd" clip-rule="evenodd" d="M15.0403 4.31175C14.9722 4.3728 14.8912 4.41329 14.7974 4.43321C14.8545 4.35066 14.9355 4.31017 15.0403 4.31175Z" fill="#949393"/>
<path opacity="0.404" fill-rule="evenodd" clip-rule="evenodd" d="M14.7976 4.43318C14.7458 4.49112 14.6783 4.51812 14.5952 4.51415C14.647 4.45622 14.7145 4.42921 14.7976 4.43318Z" fill="#8F8D8D"/>
<path opacity="0.427" fill-rule="evenodd" clip-rule="evenodd" d="M23.7046 4.3927C23.7985 4.41262 23.8794 4.45311 23.9475 4.51416C23.8427 4.51574 23.7617 4.47525 23.7046 4.3927Z" fill="#8B8A8A"/>
<path fill-rule="evenodd" clip-rule="evenodd" d="M22.085 4.3927C22.2119 4.39687 22.3199 4.43736 22.4088 4.51416C22.288 4.49784 22.18 4.45736 22.085 4.3927Z" fill="#851115"/>
<path opacity="0.451" fill-rule="evenodd" clip-rule="evenodd" d="M23.9473 4.51416C24.0412 4.53408 24.1221 4.57457 24.1902 4.63562C24.0854 4.6372 24.0044 4.59671 23.9473 4.51416Z" fill="#828181"/>
<path opacity="0.404" fill-rule="evenodd" clip-rule="evenodd" d="M14.595 4.51416C14.543 4.59975 14.462 4.64023 14.3521 4.63562C14.4201 4.57457 14.5011 4.53408 14.595 4.51416Z" fill="#7F7D7D"/>
<path opacity="0.804" fill-rule="evenodd" clip-rule="evenodd" d="M14.3524 4.63566C14.3333 4.69258 14.2928 4.71958 14.231 4.71663C14.2501 4.6597 14.2906 4.6327 14.3524 4.63566Z" fill="#787676"/>
<path opacity="0.035" fill-rule="evenodd" clip-rule="evenodd" d="M24.2715 4.67609C24.3861 4.69953 24.4806 4.7535 24.5549 4.83803C24.4403 4.81459 24.3458 4.76062 24.2715 4.67609Z" fill="#939191"/>
<path opacity="0.557" fill-rule="evenodd" clip-rule="evenodd" d="M14.1497 4.75708C14.1087 4.80461 14.0547 4.83157 13.9878 4.83805C14.0197 4.77311 14.0736 4.74611 14.1497 4.75708Z" fill="#969595"/>
<path opacity="0.016" fill-rule="evenodd" clip-rule="evenodd" d="M24.6357 4.87854C24.7238 4.88866 24.7912 4.92915 24.8382 5C24.7502 4.98988 24.6827 4.94939 24.6357 4.87854Z" fill="#9D9B9B"/>
<path opacity="0.463" fill-rule="evenodd" clip-rule="evenodd" d="M13.988 4.83807C13.9137 4.92261 13.8192 4.97658 13.7046 5.00002C13.7789 4.91548 13.8734 4.86152 13.988 4.83807Z" fill="#939292"/>
<path opacity="0.62" fill-rule="evenodd" clip-rule="evenodd" d="M13.7045 4.99997C13.6853 5.0569 13.6448 5.0839 13.583 5.08095C13.6022 5.02402 13.6426 4.99702 13.7045 4.99997Z" fill="#858484"/>
<path opacity="0.247" fill-rule="evenodd" clip-rule="evenodd" d="M24.8379 5C24.9259 5.01012 24.9934 5.05061 25.0403 5.12146C24.9523 5.11134 24.8848 5.07085 24.8379 5Z" fill="#939191"/>
<path opacity="0.137" fill-rule="evenodd" clip-rule="evenodd" d="M25.0405 5.12143C25.1023 5.11848 25.1428 5.14548 25.162 5.20241C25.1002 5.20536 25.0597 5.17836 25.0405 5.12143Z" fill="#979595"/>
<path opacity="0.247" fill-rule="evenodd" clip-rule="evenodd" d="M13.4617 5.16193C13.395 5.23585 13.314 5.28986 13.2188 5.32387C13.2715 5.22986 13.3524 5.17589 13.4617 5.16193Z" fill="#818080"/>
<path opacity="0.063" fill-rule="evenodd" clip-rule="evenodd" d="M25.1621 5.20243C25.2239 5.19947 25.2644 5.22648 25.2836 5.2834C25.2217 5.28636 25.1813 5.25935 25.1621 5.20243Z" fill="#A09E9E"/>
<path opacity="0.149" fill-rule="evenodd" clip-rule="evenodd" d="M25.2832 5.28342C25.345 5.28047 25.3855 5.30747 25.4047 5.36439C25.3428 5.36735 25.3024 5.34034 25.2832 5.28342Z" fill="#979595"/>
<path opacity="0.075" fill-rule="evenodd" clip-rule="evenodd" d="M25.4048 5.36438C25.4819 5.37402 25.5359 5.4145 25.5667 5.48584C25.4896 5.4762 25.4356 5.43572 25.4048 5.36438Z" fill="#8B8989"/>
<path opacity="0.729" fill-rule="evenodd" clip-rule="evenodd" d="M13.097 5.40488C13.0779 5.4618 13.0374 5.48881 12.9756 5.48585C12.9947 5.42893 13.0352 5.40193 13.097 5.40488Z" fill="#7D7C7C"/>
<path opacity="0.075" fill-rule="evenodd" clip-rule="evenodd" d="M25.5669 5.48581C25.6287 5.48286 25.6692 5.50986 25.6884 5.56679C25.6265 5.56974 25.586 5.54274 25.5669 5.48581Z" fill="#9B9999"/>
<path opacity="0.043" fill-rule="evenodd" clip-rule="evenodd" d="M25.6885 5.56677C25.7656 5.57641 25.8196 5.61689 25.8504 5.68823C25.7733 5.67859 25.7193 5.63811 25.6885 5.56677Z" fill="#999797"/>
<path opacity="0.475" fill-rule="evenodd" clip-rule="evenodd" d="M12.9757 5.48584C12.8766 5.60956 12.7551 5.70402 12.6113 5.76924C12.7105 5.64552 12.8319 5.55106 12.9757 5.48584Z" fill="#7F7E7E"/>
<path opacity="0.153" fill-rule="evenodd" clip-rule="evenodd" d="M25.9312 5.7692C25.993 5.76625 26.0335 5.79325 26.0526 5.85017C25.9908 5.85313 25.9503 5.82612 25.9312 5.7692Z" fill="#929090"/>
<path opacity="0.765" fill-rule="evenodd" clip-rule="evenodd" d="M12.6111 5.76923C12.5672 5.85372 12.4997 5.90769 12.4087 5.93117C12.4526 5.84668 12.5201 5.79271 12.6111 5.76923Z" fill="#6A6969"/>
<path opacity="0.043" fill-rule="evenodd" clip-rule="evenodd" d="M26.0933 5.89069C26.1843 5.91417 26.2518 5.96814 26.2957 6.05263C26.2046 6.02915 26.1372 5.97518 26.0933 5.89069Z" fill="#918F8F"/>
<path opacity="0.804" fill-rule="evenodd" clip-rule="evenodd" d="M12.4089 5.93115C12.3518 6.02889 12.2708 6.09638 12.166 6.13358C12.2231 6.03585 12.3041 5.96836 12.4089 5.93115Z" fill="#757373"/>
<path opacity="0.565" fill-rule="evenodd" clip-rule="evenodd" d="M26.2954 6.05261C26.4284 6.11808 26.5363 6.21253 26.6193 6.33601C26.4853 6.26937 26.3773 6.17488 26.2954 6.05261Z" fill="#8B8989"/>
<path opacity="0.353" fill-rule="evenodd" clip-rule="evenodd" d="M12.1659 6.13361C12.1389 6.18757 12.0984 6.22806 12.0444 6.25506C12.0444 6.17409 12.0849 6.13361 12.1659 6.13361Z" fill="#8A8989"/>
<path opacity="0.141" fill-rule="evenodd" clip-rule="evenodd" d="M20.1014 6.41698C19.5616 6.41698 19.0217 6.41698 18.4819 6.41698C18.5407 6.38451 18.6082 6.36427 18.6844 6.35625C19.1027 6.32925 19.5211 6.32925 19.9394 6.35625C20.0025 6.36475 20.0565 6.385 20.1014 6.41698Z" fill="#F08487"/>
<path opacity="0.722" fill-rule="evenodd" clip-rule="evenodd" d="M26.6196 6.33606C26.7006 6.39003 26.7681 6.45752 26.8221 6.53849C26.7141 6.51148 26.6466 6.44404 26.6196 6.33606Z" fill="#6D6B6B"/>
<path fill-rule="evenodd" clip-rule="evenodd" d="M20.1011 6.417C20.277 6.41028 20.4525 6.41704 20.6274 6.43725C20.6499 6.45275 20.6634 6.47299 20.6679 6.49797C20.4699 6.49668 20.281 6.46968 20.1011 6.417Z" fill="#EF6969"/>
<path opacity="0.153" fill-rule="evenodd" clip-rule="evenodd" d="M18.1577 6.45747C17.9884 6.50731 17.813 6.5478 17.6313 6.57893C17.6358 6.55395 17.6493 6.53371 17.6718 6.5182C17.8313 6.47711 17.9933 6.45686 18.1577 6.45747Z" fill="#EF8083"/>
<path opacity="0.694" fill-rule="evenodd" clip-rule="evenodd" d="M12.0443 6.25507C11.6923 6.62053 11.3415 6.9849 10.9917 7.34818C11.287 6.93142 11.6379 6.56705 12.0443 6.25507Z" fill="#777676"/>
<path opacity="0.906" fill-rule="evenodd" clip-rule="evenodd" d="M26.9028 6.61945C27.0943 6.77034 27.2563 6.94576 27.3887 7.14576C27.1972 6.99487 27.0352 6.81945 26.9028 6.61945Z" fill="#797777"/>
<path opacity="0.967" fill-rule="evenodd" clip-rule="evenodd" d="M61.2349 6.6599C63.9798 6.55808 65.8892 7.77265 66.9637 10.3036C67.2746 11.2121 67.477 12.1433 67.5709 13.0971C67.5912 14.1497 67.5981 15.2023 67.5912 16.255C64.5681 16.255 61.5454 16.255 58.5224 16.255C58.5681 17.3879 59.0807 18.2449 60.0608 18.8259C61.0985 19.3714 62.1649 19.4253 63.2592 18.9878C63.5835 18.8256 63.86 18.603 64.0892 18.3198C64.7381 18.915 65.3859 19.5088 66.0325 20.1012C66.0596 20.1417 66.0596 20.1822 66.0325 20.2227C65.1025 21.4216 63.8815 22.1031 62.3685 22.2672C60.6462 22.4692 59.0944 22.0644 57.7126 21.0526C56.8256 20.2165 56.2114 19.2111 55.8705 18.0364C55.7479 17.5572 55.6467 17.0714 55.5669 16.5789C55.9855 16.5856 56.4037 16.5789 56.822 16.5587C56.9365 16.5519 56.9973 16.4912 57.0041 16.3765C57.0313 15.108 57.0313 13.8394 57.0041 12.5708C56.9973 12.4561 56.9365 12.3954 56.822 12.3886C56.4442 12.3684 56.0665 12.3617 55.6884 12.3684C55.9074 10.8262 56.5349 9.4767 57.5709 8.31982C58.5993 7.32982 59.8203 6.77654 61.2349 6.6599ZM61.3969 9.65585C62.5713 9.5986 63.4418 10.0844 64.0082 11.1133C64.3345 11.8068 64.5301 12.5356 64.5952 13.2996C62.5709 13.2996 60.5467 13.2996 58.5224 13.2996C58.5641 12.3401 58.8677 11.4763 59.4333 10.7085C59.9483 10.0834 60.6029 9.73249 61.3969 9.65585Z" fill="#040404"/>
<path opacity="0.671" fill-rule="evenodd" clip-rule="evenodd" d="M8.23871 6.70039C7.90632 6.735 7.56895 6.77549 7.22656 6.82185C7.3494 6.76039 7.48434 6.72666 7.63142 6.72063C7.8334 6.70043 8.03583 6.69367 8.23871 6.70039Z" fill="#535252"/>
<path opacity="0.494" fill-rule="evenodd" clip-rule="evenodd" d="M17.3075 6.65991C17.1312 6.76388 16.9423 6.84485 16.7407 6.90283C16.9111 6.78291 17.1001 6.70194 17.3075 6.65991Z" fill="#EC8789"/>
<path opacity="0.494" fill-rule="evenodd" clip-rule="evenodd" d="M20.668 6.49799C21.0791 6.54657 21.457 6.68151 21.8016 6.90284C21.4476 6.75876 21.0832 6.64406 20.7085 6.55871C20.6859 6.54321 20.6725 6.52297 20.668 6.49799Z" fill="#ED8789"/>
<path fill-rule="evenodd" clip-rule="evenodd" d="M8.23869 6.70038C8.28359 6.70269 8.32408 6.71617 8.36015 6.74086C8.56428 6.8203 8.78019 6.87427 9.00792 6.90281C9.17788 6.93175 9.31282 7.01273 9.41278 7.14572C9.11715 8.04625 8.80679 8.93694 8.48161 9.81779C8.44246 9.87066 8.38845 9.89767 8.31966 9.89876C8.15282 9.8475 7.99088 9.78005 7.83383 9.69633C7.78602 9.63289 7.71857 9.59912 7.6314 9.59512C7.38849 9.56811 7.14558 9.56811 6.90266 9.59512C6.76643 9.61556 6.64497 9.66281 6.53829 9.73682C6.41416 9.83358 6.27918 9.91455 6.13343 9.97973C6.0357 10.0369 5.96821 10.1178 5.931 10.2226C5.794 10.4327 5.67254 10.6487 5.56663 10.8704C5.46954 11.0284 5.41558 11.2039 5.40468 11.3967C5.40468 11.4102 5.40468 11.4237 5.40468 11.4372C5.3412 11.5308 5.30744 11.6388 5.30347 11.7611C5.29671 15.0877 5.27647 18.4076 5.24274 21.7206C4.31157 21.7206 3.38039 21.7206 2.44922 21.7206C2.44922 16.7679 2.44922 11.8151 2.44922 6.86232C3.38039 6.86232 4.31157 6.86232 5.24274 6.86232C5.22926 7.42977 5.24278 7.99657 5.28323 8.56273C5.33201 8.51912 5.35902 8.46516 5.3642 8.40078C5.62813 7.65256 6.14096 7.14649 6.90266 6.88256C7.00642 6.83888 7.11436 6.81864 7.22655 6.82184C7.56894 6.77548 7.9063 6.73499 8.23869 6.70038Z" fill="#050505"/>
<path opacity="0.635" fill-rule="evenodd" clip-rule="evenodd" d="M8.36035 6.74091C8.59027 6.75487 8.80618 6.80884 9.00812 6.90285C8.78039 6.87431 8.56448 6.82034 8.36035 6.74091Z" fill="#414040"/>
<path opacity="0.506" fill-rule="evenodd" clip-rule="evenodd" d="M5.36416 8.40079C5.35897 8.46516 5.33197 8.51913 5.28319 8.56273C5.24274 7.99658 5.22922 7.42977 5.2427 6.86232C4.31153 6.86232 3.38035 6.86232 2.44918 6.86232C2.44918 11.8151 2.44918 16.7679 2.44918 21.7206C3.38035 21.7206 4.31153 21.7206 5.2427 21.7206C5.2427 21.7341 5.2427 21.7476 5.2427 21.7611C4.29804 21.7611 3.35336 21.7611 2.40869 21.7611C2.40869 16.7814 2.40869 11.8016 2.40869 6.82184C3.38035 6.82184 4.35201 6.82184 5.32367 6.82184C5.32736 7.36346 5.32059 7.90326 5.30343 8.44127C5.31893 8.41876 5.33918 8.40528 5.36416 8.40079Z" fill="#595858"/>
<path fill-rule="evenodd" clip-rule="evenodd" d="M16.7407 6.90284C16.5927 7.01041 16.4308 7.09138 16.2549 7.14575C16.3554 6.94988 16.5174 6.86891 16.7407 6.90284Z" fill="#F06561"/>
<path opacity="0.706" fill-rule="evenodd" clip-rule="evenodd" d="M21.8018 6.90283C21.8649 6.9036 21.9256 6.91708 21.9839 6.94332C22.0893 7.02639 22.204 7.09384 22.3281 7.14575C22.3428 7.1734 22.3563 7.2004 22.3686 7.22672C22.1661 7.13911 21.9772 7.03113 21.8018 6.90283Z" fill="#EF878A"/>
<path opacity="0.855" fill-rule="evenodd" clip-rule="evenodd" d="M27.3887 7.14575C27.4864 7.20288 27.5539 7.28385 27.5911 7.38867C27.4934 7.33154 27.4259 7.25057 27.3887 7.14575Z" fill="#757373"/>
<path opacity="0.627" fill-rule="evenodd" clip-rule="evenodd" d="M22.3687 7.22672C22.4305 7.22376 22.471 7.25077 22.4901 7.30769C22.4283 7.31065 22.3878 7.28364 22.3687 7.22672Z" fill="#ED8C8F"/>
<path fill-rule="evenodd" clip-rule="evenodd" d="M22.6113 7.38867C22.6961 7.42559 22.7771 7.47284 22.8542 7.53037C22.8847 7.55754 22.8982 7.59126 22.8947 7.63159C22.7773 7.57928 22.6828 7.49831 22.6113 7.38867Z" fill="#EF8588"/>
<path opacity="0.596" fill-rule="evenodd" clip-rule="evenodd" d="M10.992 7.34821C10.9548 7.45302 10.8873 7.534 10.7896 7.59112C10.8268 7.4863 10.8942 7.40533 10.992 7.34821Z" fill="#848383"/>
<path opacity="0.388" fill-rule="evenodd" clip-rule="evenodd" d="M27.5913 7.38867C27.689 7.4458 27.7565 7.52677 27.7937 7.63159C27.696 7.57446 27.6285 7.49349 27.5913 7.38867Z" fill="#848282"/>
<path opacity="0.992" fill-rule="evenodd" clip-rule="evenodd" d="M15.9717 7.34821C15.8245 7.48926 15.6626 7.61072 15.4858 7.71258C15.5108 7.64258 15.5513 7.58185 15.6073 7.53039C15.7254 7.45861 15.8469 7.39788 15.9717 7.34821Z" fill="#EE8587"/>
<path opacity="0.796" fill-rule="evenodd" clip-rule="evenodd" d="M27.7935 7.63159C27.8648 7.66244 27.9053 7.71645 27.9149 7.79354C27.8436 7.76268 27.8031 7.70868 27.7935 7.63159Z" fill="#807E7E"/>
<path opacity="0.267" fill-rule="evenodd" clip-rule="evenodd" d="M10.7893 7.59106C10.7279 7.71386 10.647 7.82183 10.5464 7.91495C10.588 7.77766 10.669 7.66973 10.7893 7.59106Z" fill="#908E8E"/>
<path opacity="0.749" fill-rule="evenodd" clip-rule="evenodd" d="M27.915 7.79352C27.9864 7.82437 28.0269 7.87838 28.0365 7.95546C27.9652 7.92461 27.9247 7.8706 27.915 7.79352Z" fill="#828080"/>
<path opacity="0.494" fill-rule="evenodd" clip-rule="evenodd" d="M10.5465 7.91498C10.5495 7.9768 10.5225 8.01729 10.4656 8.03644C10.4626 7.97461 10.4896 7.93413 10.5465 7.91498Z" fill="#818080"/>
<path opacity="0.439" fill-rule="evenodd" clip-rule="evenodd" d="M28.0364 7.95544C28.0933 7.97459 28.1203 8.01508 28.1173 8.0769C28.0604 8.05775 28.0334 8.01727 28.0364 7.95544Z" fill="#848282"/>
<path opacity="0.643" fill-rule="evenodd" clip-rule="evenodd" d="M10.4657 8.03644C10.4561 8.11352 10.4156 8.16753 10.3442 8.19838C10.3539 8.1213 10.3944 8.06729 10.4657 8.03644Z" fill="#7D7B7B"/>
<path opacity="0.537" fill-rule="evenodd" clip-rule="evenodd" d="M28.1174 8.0769C28.1743 8.09605 28.2013 8.13654 28.1984 8.19836C28.1415 8.17921 28.1145 8.13873 28.1174 8.0769Z" fill="#807E7E"/>
<path opacity="0.4" fill-rule="evenodd" clip-rule="evenodd" d="M10.3439 8.19836C10.3468 8.26019 10.3198 8.30067 10.2629 8.31982C10.26 8.258 10.287 8.21751 10.3439 8.19836Z" fill="#929191"/>
<path opacity="0.502" fill-rule="evenodd" clip-rule="evenodd" d="M28.1982 8.19836C28.2696 8.22921 28.3101 8.28322 28.3197 8.36031C28.2484 8.32946 28.2079 8.27545 28.1982 8.19836Z" fill="#848383"/>
<path opacity="0.275" fill-rule="evenodd" clip-rule="evenodd" d="M10.2633 8.31982C10.2663 8.38165 10.2393 8.42213 10.1823 8.44128C10.1794 8.37946 10.2064 8.33897 10.2633 8.31982Z" fill="#979595"/>
<path opacity="0.412" fill-rule="evenodd" clip-rule="evenodd" d="M28.3606 8.44128C28.4175 8.46043 28.4445 8.50092 28.4415 8.56274C28.3846 8.54359 28.3576 8.50311 28.3606 8.44128Z" fill="#8B8989"/>
<path opacity="0.62" fill-rule="evenodd" clip-rule="evenodd" d="M15.0001 8.19836C14.8748 8.38144 14.7399 8.55691 14.5952 8.72468C14.6729 8.50452 14.8079 8.32905 15.0001 8.19836Z" fill="#F08A8C"/>
<path opacity="0.255" fill-rule="evenodd" clip-rule="evenodd" d="M28.4411 8.56274C28.4981 8.58189 28.5251 8.62238 28.5221 8.6842C28.4652 8.66505 28.4382 8.62457 28.4411 8.56274Z" fill="#9C9A9A"/>
<path opacity="0.314" fill-rule="evenodd" clip-rule="evenodd" d="M10.1419 8.52228C10.0946 8.64418 10.0271 8.75216 9.93945 8.84616C9.96654 8.71058 10.034 8.6026 10.1419 8.52228Z" fill="#8E8D8D"/>
<path opacity="0.016" fill-rule="evenodd" clip-rule="evenodd" d="M22.8945 7.63159C23.1216 7.81107 23.3442 8.00001 23.5625 8.19839C23.7032 8.43171 23.8584 8.65439 24.0281 8.86641C24.0544 8.92471 24.0679 8.98544 24.0686 9.0486C23.8798 8.81868 23.7044 8.57576 23.5423 8.31985C23.3255 8.08961 23.1096 7.86017 22.8945 7.63159Z" fill="#EE8D8F"/>
<path opacity="0.298" fill-rule="evenodd" clip-rule="evenodd" d="M28.5627 8.7652C28.6196 8.78435 28.6466 8.82483 28.6437 8.88666C28.5868 8.86751 28.5598 8.82702 28.5627 8.7652Z" fill="#A19F9F"/>
<path opacity="0.961" fill-rule="evenodd" clip-rule="evenodd" d="M9.93929 8.84613C9.91467 8.96378 9.8607 9.05828 9.77734 9.12953C9.80079 9.01492 9.85475 8.92046 9.93929 8.84613Z" fill="#6D6B6B"/>
<path opacity="0.624" fill-rule="evenodd" clip-rule="evenodd" d="M14.5949 8.72472C14.5161 8.88419 14.4217 9.03265 14.3115 9.17006C14.3123 9.1069 14.3258 9.04617 14.352 8.98787C14.4313 8.93524 14.4786 8.86103 14.4937 8.7652C14.5209 8.73476 14.5546 8.72124 14.5949 8.72472Z" fill="#EF8A8B"/>
<path opacity="0.212" fill-rule="evenodd" clip-rule="evenodd" d="M28.6841 8.96759C28.7686 9.04192 28.8226 9.13638 28.846 9.25099C28.7615 9.17666 28.7075 9.08221 28.6841 8.96759Z" fill="#AAA8A8"/>
<path opacity="0.114" fill-rule="evenodd" clip-rule="evenodd" d="M9.7772 9.12958C9.77072 9.1965 9.74376 9.25047 9.69623 9.29152C9.68525 9.21541 9.71226 9.16144 9.7772 9.12958Z" fill="#A8A6A6"/>
<path fill-rule="evenodd" clip-rule="evenodd" d="M20.061 9.41293C19.564 9.32309 19.0646 9.30961 18.563 9.37245C18.5799 9.34322 18.6069 9.32297 18.644 9.31172C19.1327 9.20969 19.6051 9.24342 20.061 9.41293Z" fill="#EB787A"/>
<path fill-rule="evenodd" clip-rule="evenodd" d="M20.0609 9.41296C20.2057 9.51102 20.3676 9.57851 20.5467 9.61539C20.5546 9.71304 20.6086 9.75353 20.7087 9.73685C20.8848 9.96972 21.0873 10.1722 21.316 10.3441C21.3638 10.4867 21.4448 10.6081 21.5589 10.7085C21.575 10.8269 21.629 10.9214 21.7208 10.9919C21.7286 11.1377 21.7826 11.2592 21.8828 11.3563C21.9003 11.5624 21.9543 11.7513 22.0447 11.9231C22.0586 12.1155 22.0856 12.3044 22.1257 12.4899C22.1257 12.6383 22.1257 12.7868 22.1257 12.9352C20.1284 12.9352 18.1311 12.9352 16.1338 12.9352C16.1419 12.692 16.1554 12.449 16.1743 12.2065C16.2554 12.0158 16.3094 11.8133 16.3362 11.5992C16.3728 11.5705 16.3863 11.53 16.3767 11.4777C16.4172 11.4777 16.4577 11.4777 16.4982 11.4777C16.5105 11.3554 16.5307 11.2339 16.5589 11.1134C16.7504 10.8084 16.9461 10.5115 17.1459 10.2227C17.3553 10.0786 17.5442 9.91665 17.7127 9.73685C17.8587 9.65385 18.014 9.5864 18.1783 9.53442C18.22 9.52082 18.2403 9.49381 18.2391 9.45345C18.3576 9.45082 18.4656 9.42381 18.5629 9.37248C19.0646 9.30964 19.5639 9.32312 20.0609 9.41296Z" fill="#EB1E25"/>
<path opacity="0.753" fill-rule="evenodd" clip-rule="evenodd" d="M14.3118 9.17004C14.2602 9.30203 14.1928 9.42349 14.1094 9.53442C14.1244 9.37915 14.1919 9.2577 14.3118 9.17004Z" fill="#EF8B8E"/>
<path opacity="0.69" fill-rule="evenodd" clip-rule="evenodd" d="M18.5627 9.37245C18.4653 9.42379 18.3573 9.45079 18.2388 9.45342C18.3334 9.39107 18.4414 9.36411 18.5627 9.37245Z" fill="#EC898C"/>
<path opacity="0.302" fill-rule="evenodd" clip-rule="evenodd" d="M20.0605 9.41296C20.2428 9.43673 20.4047 9.50422 20.5464 9.61539C20.3673 9.57851 20.2053 9.51102 20.0605 9.41296Z" fill="#EE8F91"/>
<path opacity="0.173" fill-rule="evenodd" clip-rule="evenodd" d="M9.65568 9.3725C9.63576 9.46638 9.59528 9.54736 9.53422 9.61541C9.53265 9.51059 9.57313 9.42962 9.65568 9.3725Z" fill="#A5A3A3"/>
<path opacity="0.212" fill-rule="evenodd" clip-rule="evenodd" d="M7.83412 9.69636C7.3991 9.58409 6.96728 9.59757 6.53857 9.73684C6.64525 9.66284 6.76671 9.61559 6.90295 9.59514C7.14586 9.56814 7.38878 9.56814 7.63169 9.59514C7.71886 9.59915 7.78631 9.63292 7.83412 9.69636Z" fill="#565555"/>
<path opacity="0.722" fill-rule="evenodd" clip-rule="evenodd" d="M18.2387 9.45343C18.2399 9.49379 18.2197 9.5208 18.178 9.5344C18.0136 9.58639 17.8584 9.65384 17.7124 9.73683C17.8583 9.58962 18.0337 9.49517 18.2387 9.45343Z" fill="#ED8689"/>
<path opacity="0.839" fill-rule="evenodd" clip-rule="evenodd" d="M20.5464 9.61536C20.6121 9.64054 20.666 9.68102 20.7083 9.73681C20.6082 9.75349 20.5542 9.71301 20.5464 9.61536Z" fill="#EE8A8C"/>
<path opacity="0.702" fill-rule="evenodd" clip-rule="evenodd" d="M24.0688 9.04858C24.1461 9.06409 24.2068 9.10458 24.251 9.17004C24.372 9.47563 24.4733 9.78603 24.5547 10.1012C24.3945 9.75352 24.2325 9.40267 24.0688 9.04858Z" fill="#F17F7F"/>
<path opacity="0.208" fill-rule="evenodd" clip-rule="evenodd" d="M9.45342 9.77734C9.45739 9.86046 9.43039 9.92795 9.37245 9.97977C9.36848 9.89666 9.39549 9.82917 9.45342 9.77734Z" fill="#9A9898"/>
<path opacity="0.6" fill-rule="evenodd" clip-rule="evenodd" d="M28.9272 9.41296C29.0393 9.56981 29.1202 9.74523 29.1702 9.93928C29.1062 9.85126 29.0454 9.75681 28.988 9.65588C28.9551 9.5775 28.9348 9.49653 28.9272 9.41296Z" fill="#8C8B8B"/>
<path opacity="0.01" fill-rule="evenodd" clip-rule="evenodd" d="M8.48177 9.81781C8.48177 9.87178 8.48177 9.92579 8.48177 9.97975C8.40565 9.99073 8.35169 9.96372 8.31982 9.89878C8.38861 9.89769 8.44262 9.87068 8.48177 9.81781Z" fill="#706F6F"/>
<path fill-rule="evenodd" clip-rule="evenodd" d="M20.7085 9.73682C20.9514 9.89876 21.1538 10.1012 21.3158 10.3441C21.0871 10.1721 20.8846 9.96969 20.7085 9.73682Z" fill="#F08184"/>
<path opacity="0.769" fill-rule="evenodd" clip-rule="evenodd" d="M14.0284 9.65588C13.9248 9.97815 13.8034 10.2886 13.6641 10.5871C13.6749 10.4559 13.7019 10.3277 13.745 10.2024C13.8173 10.0755 13.8713 9.94054 13.907 9.79758C13.9422 9.74236 13.9827 9.69516 14.0284 9.65588Z" fill="#EF8486"/>
<path fill-rule="evenodd" clip-rule="evenodd" d="M17.7123 9.73682C17.5438 9.91661 17.3549 10.0786 17.1455 10.2226C17.2985 10.0155 17.4874 9.85354 17.7123 9.73682Z" fill="#F16D6D"/>
<path opacity="0.016" fill-rule="evenodd" clip-rule="evenodd" d="M6.13358 9.97974C6.09638 10.0846 6.02889 10.1655 5.93115 10.2227C5.96836 10.1178 6.03585 10.0369 6.13358 9.97974Z" fill="#555454"/>
<path opacity="0.251" fill-rule="evenodd" clip-rule="evenodd" d="M9.33184 10.0607C9.33581 10.1438 9.3088 10.2113 9.25087 10.2632C9.2469 10.18 9.27391 10.1126 9.33184 10.0607Z" fill="#A5A3A3"/>
<path opacity="0.965" fill-rule="evenodd" clip-rule="evenodd" d="M29.251 10.1417C29.3439 10.2579 29.3979 10.3929 29.4129 10.5466C29.3151 10.4316 29.2612 10.2967 29.251 10.1417Z" fill="#807E7E"/>
<path opacity="0.453" fill-rule="evenodd" clip-rule="evenodd" d="M24.5547 10.1012C24.6435 10.1831 24.684 10.291 24.6761 10.4251C24.6206 10.3265 24.5802 10.2185 24.5547 10.1012Z" fill="#EE898B"/>
<path opacity="0.729" fill-rule="evenodd" clip-rule="evenodd" d="M17.1457 10.2227C16.9458 10.5115 16.7501 10.8084 16.5586 11.1133C16.5304 11.2339 16.5102 11.3554 16.4979 11.4777C16.4574 11.4777 16.4169 11.4777 16.3764 11.4777C16.386 11.53 16.3725 11.5705 16.3359 11.5992C16.4819 11.0638 16.7518 10.605 17.1457 10.2227Z" fill="#F07F7F"/>
<path opacity="0.486" fill-rule="evenodd" clip-rule="evenodd" d="M21.3159 10.3441C21.4272 10.4452 21.5082 10.5667 21.5588 10.7085C21.4447 10.6081 21.3638 10.4867 21.3159 10.3441Z" fill="#EE8B8C"/>
<path opacity="0.969" fill-rule="evenodd" clip-rule="evenodd" d="M9.25085 10.2632C9.25713 10.3934 9.21664 10.5014 9.12939 10.5871C9.14883 10.4679 9.18931 10.3599 9.25085 10.2632Z" fill="#636262"/>
<path opacity="0.808" fill-rule="evenodd" clip-rule="evenodd" d="M24.6763 10.4251C24.7202 10.43 24.7472 10.457 24.7572 10.5061C24.8 10.6658 24.827 10.8277 24.8382 10.9919C24.7723 10.8099 24.7184 10.6209 24.6763 10.4251Z" fill="#EF8080"/>
<path opacity="0.749" fill-rule="evenodd" clip-rule="evenodd" d="M29.4131 10.5466C29.525 10.7447 29.5925 10.9607 29.6155 11.1943C29.5166 10.9919 29.4491 10.776 29.4131 10.5466Z" fill="#8A8888"/>
<path fill-rule="evenodd" clip-rule="evenodd" d="M9.12972 10.587C9.12032 10.7669 9.06636 10.9288 8.96777 11.0729C8.99838 10.9001 9.05235 10.7382 9.12972 10.587Z" fill="#6F6D6D"/>
<path opacity="0.012" fill-rule="evenodd" clip-rule="evenodd" d="M21.5586 10.7085C21.6375 10.7866 21.6915 10.8811 21.7205 10.9919C21.6287 10.9214 21.5747 10.8269 21.5586 10.7085Z" fill="#ED9D9F"/>
<path opacity="0.388" fill-rule="evenodd" clip-rule="evenodd" d="M5.56673 10.8704C5.53078 11.0555 5.47681 11.2309 5.40479 11.3967C5.41568 11.2039 5.46964 11.0284 5.56673 10.8704Z" fill="#585757"/>
<path opacity="0.133" fill-rule="evenodd" clip-rule="evenodd" d="M13.6639 10.587C13.6261 10.7953 13.5586 10.9843 13.4614 11.1538C13.5017 10.9935 13.5422 10.8316 13.5829 10.668C13.5929 10.6189 13.6199 10.5919 13.6639 10.587Z" fill="#EF9496"/>
<path opacity="0.612" fill-rule="evenodd" clip-rule="evenodd" d="M8.96753 11.0729C8.97117 11.1802 8.94421 11.2747 8.88656 11.3563C8.88291 11.2489 8.90988 11.1545 8.96753 11.0729Z" fill="#8B8A8A"/>
<path opacity="0.71" fill-rule="evenodd" clip-rule="evenodd" d="M21.7207 10.9919C21.7901 11.1054 21.8441 11.2268 21.8826 11.3563C21.7825 11.2592 21.7285 11.1377 21.7207 10.9919Z" fill="#EC8E8F"/>
<path opacity="0.035" fill-rule="evenodd" clip-rule="evenodd" d="M29.6152 11.1943C29.6789 11.2592 29.706 11.3402 29.6962 11.4373C29.6325 11.3724 29.6055 11.2914 29.6152 11.1943Z" fill="#979595"/>
<path opacity="0.775" fill-rule="evenodd" clip-rule="evenodd" d="M24.8379 10.9919C24.8965 11.0176 24.9234 11.0648 24.9189 11.1336C24.963 11.3544 24.99 11.5771 24.9998 11.8016C24.9422 11.5339 24.8883 11.264 24.8379 10.9919Z" fill="#F18486"/>
<path opacity="0.373" fill-rule="evenodd" clip-rule="evenodd" d="M13.4613 11.1539C13.4685 11.3005 13.4415 11.4355 13.3804 11.5587C13.3824 11.4139 13.4093 11.2789 13.4613 11.1539Z" fill="#ED888A"/>
<path opacity="0.722" fill-rule="evenodd" clip-rule="evenodd" d="M21.8828 11.3563C21.9821 11.5291 22.0361 11.718 22.0448 11.9231C21.9544 11.7513 21.9004 11.5624 21.8828 11.3563Z" fill="#EE9193"/>
<path opacity="0.714" fill-rule="evenodd" clip-rule="evenodd" d="M13.3807 11.5587C13.3301 11.8601 13.2761 12.1569 13.2188 12.4494C13.2316 12.1638 13.2653 11.8804 13.32 11.5992C13.3355 11.5767 13.3557 11.5632 13.3807 11.5587Z" fill="#F08384"/>
<path opacity="0.165" fill-rule="evenodd" clip-rule="evenodd" d="M16.3363 11.5992C16.3095 11.8133 16.2555 12.0157 16.1743 12.2065C16.1911 11.9903 16.245 11.7879 16.3363 11.5992Z" fill="#EF8D8F"/>
<path opacity="0.186" fill-rule="evenodd" clip-rule="evenodd" d="M29.7773 11.8016C29.8533 11.9922 29.8937 12.1946 29.8988 12.4089C29.8285 12.2174 29.788 12.015 29.7773 11.8016Z" fill="#8F8E8E"/>
<path opacity="0.204" fill-rule="evenodd" clip-rule="evenodd" d="M8.88687 11.3563C8.77396 11.8864 8.66598 12.4127 8.56299 12.9352C8.59947 12.3884 8.7074 11.8621 8.88687 11.3563Z" fill="#908E8E"/>
<path fill-rule="evenodd" clip-rule="evenodd" d="M9.33187 11.8421C9.30259 12.0583 9.26883 12.2742 9.23065 12.4899C9.2194 12.527 9.19915 12.5539 9.16992 12.5708C9.19919 12.3547 9.23296 12.1387 9.27114 11.9231C9.28239 11.886 9.30263 11.859 9.33187 11.8421Z" fill="#740F13"/>
<path opacity="0.365" fill-rule="evenodd" clip-rule="evenodd" d="M22.0444 11.9231C22.0694 11.9276 22.0897 11.9411 22.1052 11.9636C22.1349 12.1382 22.1552 12.3137 22.1659 12.4899C22.1524 12.4899 22.1389 12.4899 22.1254 12.4899C22.0853 12.3044 22.0583 12.1155 22.0444 11.9231Z" fill="#ED8688"/>
<path opacity="0.027" fill-rule="evenodd" clip-rule="evenodd" d="M29.8989 12.4089C29.9355 12.4376 29.949 12.4781 29.9394 12.5304C30.2573 12.5172 30.5677 12.5307 30.8706 12.5709C30.5467 12.5709 30.2228 12.5709 29.8989 12.5709C29.8989 12.5169 29.8989 12.4629 29.8989 12.4089Z" fill="#B1AEAE"/>
<path opacity="0.012" fill-rule="evenodd" clip-rule="evenodd" d="M5.40462 11.4373C5.38883 11.5724 5.36859 11.7074 5.34389 11.8421C5.35057 15.1622 5.31681 18.4686 5.24268 21.7611C5.24268 21.7477 5.24268 21.7341 5.24268 21.7207C5.2764 18.4076 5.29664 15.0878 5.3034 11.7611C5.30737 11.6388 5.34114 11.5308 5.40462 11.4373Z" fill="#797777"/>
<path opacity="0.078" fill-rule="evenodd" clip-rule="evenodd" d="M13.2187 12.4899C13.2253 12.6255 13.2186 12.7604 13.1984 12.8947C13.189 12.9448 13.1688 12.9853 13.1377 13.0162C13.1486 12.8329 13.1756 12.6574 13.2187 12.4899Z" fill="#EAA1A4"/>
<path fill-rule="evenodd" clip-rule="evenodd" d="M29.332 12.4089C29.4035 12.5151 29.4305 12.6366 29.413 12.7733C38.4818 12.7733 47.5507 12.7733 56.6195 12.7733C56.6328 13.9139 56.6195 15.0475 56.579 16.1741C56.579 16.1606 56.579 16.1471 56.579 16.1336C56.579 15.027 56.579 13.9204 56.579 12.8138C47.5102 12.8138 38.4413 12.8138 29.3725 12.8138C29.3678 12.6778 29.3543 12.5428 29.332 12.4089Z" fill="#7A1115"/>
<path fill-rule="evenodd" clip-rule="evenodd" d="M29.3725 12.8138C38.4413 12.8138 47.5102 12.8138 56.579 12.8138C56.579 13.9204 56.579 15.027 56.579 16.1336C47.4968 16.1404 38.4143 16.1336 29.332 16.1134C38.4009 16.0931 47.4697 16.0864 56.5385 16.0931C56.5385 15.027 56.5385 13.9609 56.5385 12.8948C47.4766 12.8971 38.4211 12.8701 29.3725 12.8138Z" fill="#F61F26"/>
<path opacity="0.933" fill-rule="evenodd" clip-rule="evenodd" d="M16.1738 12.2065C16.155 12.449 16.1415 12.6919 16.1334 12.9352C18.1373 12.9757 20.1481 12.9892 22.1657 12.9757C22.1657 12.8138 22.1657 12.6518 22.1657 12.4899C22.2193 12.668 22.2193 12.8502 22.1657 13.0364C20.1415 13.0634 18.1172 13.0634 16.0929 13.0364C16.0571 12.789 16.0638 12.5393 16.1131 12.2875C16.1244 12.2504 16.1446 12.2234 16.1738 12.2065Z" fill="#F3898C"/>
<path fill-rule="evenodd" clip-rule="evenodd" d="M22.1257 12.4899C22.1392 12.4899 22.1527 12.4899 22.1662 12.4899C22.1662 12.6518 22.1662 12.8138 22.1662 12.9757C20.1485 12.9891 18.1377 12.9757 16.1338 12.9352C18.1311 12.9352 20.1284 12.9352 22.1257 12.9352C22.1257 12.7868 22.1257 12.6383 22.1257 12.4899Z" fill="#ED343A"/>
<path fill-rule="evenodd" clip-rule="evenodd" d="M9.17026 12.6923C9.18248 12.866 9.15552 13.0279 9.08929 13.1782C9.07706 13.0045 9.10402 12.8425 9.17026 12.6923Z" fill="#5E0D10"/>
<path opacity="0.4" fill-rule="evenodd" clip-rule="evenodd" d="M25 11.8421C25.0913 12.1534 25.1385 12.4772 25.1417 12.8138C25.1753 13.8463 25.1685 14.8719 25.1215 15.8907C25.1282 14.9054 25.1215 13.9203 25.1012 12.9352C25.0862 12.5678 25.0525 12.2034 25 11.8421Z" fill="#ED9092"/>
<path opacity="0.439" fill-rule="evenodd" clip-rule="evenodd" d="M8.56264 12.9757C8.54628 13.3736 8.5328 13.7717 8.52215 14.17C8.54106 15.3484 8.71652 16.5023 9.04847 17.6316C8.96361 17.4383 8.8894 17.2358 8.8258 17.0243C8.4796 15.6854 8.39187 14.3359 8.56264 12.9757Z" fill="#8A8989"/>
<path opacity="0.706" fill-rule="evenodd" clip-rule="evenodd" d="M13.1376 15.0405C13.1431 15.5831 13.1836 16.123 13.2591 16.6599C13.1932 16.4037 13.146 16.1338 13.1174 15.8502C13.0842 15.573 13.0909 15.3031 13.1376 15.0405Z" fill="#EF8384"/>
<path fill-rule="evenodd" clip-rule="evenodd" d="M25.1217 15.8907C22.1395 15.9715 19.1436 15.9985 16.1338 15.9716C16.1338 16.1066 16.1338 16.2415 16.1338 16.3765C16.1203 16.3765 16.1068 16.3765 16.0933 16.3765C16.0399 16.2254 16.0399 16.0702 16.0933 15.9109C19.1028 15.8907 22.1122 15.8839 25.1217 15.8907Z" fill="#EE6362"/>
<path fill-rule="evenodd" clip-rule="evenodd" d="M16.0932 16.3765C16.1067 16.3765 16.1202 16.3765 16.1337 16.3765C16.1577 16.4829 16.1712 16.5909 16.1742 16.7004C16.1044 16.6081 16.0775 16.5001 16.0932 16.3765Z" fill="#EB8B8E"/>
<path opacity="0.498" fill-rule="evenodd" clip-rule="evenodd" d="M29.8988 16.417C29.8367 16.5492 29.7828 16.6841 29.7368 16.8218C29.7439 16.6852 29.7641 16.5503 29.7975 16.417C29.8371 16.3654 29.8709 16.3654 29.8988 16.417Z" fill="#878585"/>
<path opacity="0.894" fill-rule="evenodd" clip-rule="evenodd" d="M38.7246 16.7409C39.7099 16.7341 40.6951 16.7409 41.6801 16.7611C41.7003 16.7814 41.7206 16.8016 41.7408 16.8219C41.7744 18.4644 41.7675 20.1041 41.7206 21.7409C40.7222 21.7611 39.7234 21.7679 38.7246 21.7611C38.7246 20.0877 38.7246 18.4143 38.7246 16.7409Z" fill="#0A0100"/>
<path opacity="0.914" fill-rule="evenodd" clip-rule="evenodd" d="M52.2065 16.7409C53.2013 16.7276 54.1932 16.7411 55.1823 16.7814C55.2025 18.4413 55.2094 20.1012 55.2025 21.7611C54.2037 21.7611 53.2053 21.7611 52.2065 21.7611C52.2065 20.0877 52.2065 18.4143 52.2065 16.7409Z" fill="black"/>
<path opacity="0.957" fill-rule="evenodd" clip-rule="evenodd" d="M30.0605 16.7813C31.0728 16.7746 32.0849 16.7813 33.097 16.8016C33.7433 18.4658 34.9444 19.1271 36.7002 18.7854C37.2691 18.6257 37.7617 18.3356 38.178 17.9149C38.2876 17.7581 38.3888 17.5962 38.4816 17.4291C38.5288 18.468 38.5356 19.5071 38.5018 20.5465C37.3202 21.8712 35.8695 22.2828 34.1496 21.7813C32.4734 21.1714 31.279 20.0445 30.5666 18.4008C30.3283 17.8815 30.1596 17.3417 30.0605 16.7813Z" fill="#030403"/>
<path opacity="0.956" fill-rule="evenodd" clip-rule="evenodd" d="M43.5425 16.7814C44.555 16.7679 45.5672 16.7814 46.5789 16.8218C47.1749 18.3951 48.3085 19.0631 49.9797 18.8259C50.5376 18.702 51.0372 18.4591 51.4777 18.0972C51.6749 17.8982 51.8368 17.6755 51.9635 17.4291C52.0109 18.468 52.0174 19.5072 51.9838 20.5465C50.5311 22.0866 48.8372 22.4037 46.9028 21.498C45.4773 20.7326 44.4789 19.5923 43.9069 18.0769C43.7477 17.6561 43.6263 17.2243 43.5425 16.7814Z" fill="#030403"/>
<path fill-rule="evenodd" clip-rule="evenodd" d="M9.3724 16.8218C9.43005 16.9034 9.45701 16.9979 9.45337 17.1052C9.39572 17.0237 9.36875 16.9292 9.3724 16.8218Z" fill="#580B10"/>
<path fill-rule="evenodd" clip-rule="evenodd" d="M29.2103 16.7004C29.1898 16.8454 29.1493 16.9804 29.0889 17.1052C29.1012 16.9829 29.1214 16.8614 29.1496 16.7409C29.1651 16.7184 29.1853 16.7049 29.2103 16.7004Z" fill="#911217"/>
<path opacity="0.169" fill-rule="evenodd" clip-rule="evenodd" d="M29.7367 16.8218C29.7394 16.9866 29.699 17.1351 29.6152 17.2672C29.6307 17.1074 29.6712 16.959 29.7367 16.8218Z" fill="#9D9B9B"/>
<path fill-rule="evenodd" clip-rule="evenodd" d="M38.9678 16.9838C39.818 16.9838 40.6682 16.9838 41.5184 16.9838C41.5184 18.4953 41.5184 20.0068 41.5184 21.5182C40.6682 21.5182 39.818 21.5182 38.9678 21.5182C38.9678 20.0068 38.9678 18.4953 38.9678 16.9838Z" fill="#EA1D24"/>
<path fill-rule="evenodd" clip-rule="evenodd" d="M54.9594 21.5182C54.9594 21.5048 54.9594 21.4912 54.9594 21.4778C54.9594 19.9933 54.9594 18.5088 54.9594 17.0243C54.1226 17.0243 53.2861 17.0243 52.4493 17.0243C52.4493 18.5088 52.4493 19.9933 52.4493 21.4778C52.4493 21.4912 52.4493 21.5048 52.4493 21.5182C52.4088 20.0137 52.3955 18.5022 52.4088 16.9838C53.2724 16.9838 54.1363 16.9838 54.9999 16.9838C55.0133 18.5022 54.9999 20.0137 54.9594 21.5182Z" fill="#750F13"/>
<path fill-rule="evenodd" clip-rule="evenodd" d="M54.9593 21.4777C54.9593 21.4912 54.9593 21.5047 54.9593 21.5182C54.1225 21.5182 53.2861 21.5182 52.4492 21.5182C52.4492 21.5047 52.4492 21.4912 52.4492 21.4777C52.4897 20.0136 52.5031 18.5427 52.4897 17.0648C53.2994 17.0648 54.1091 17.0648 54.9189 17.0648C54.9055 18.5427 54.9189 20.0136 54.9593 21.4777Z" fill="#EA1D24"/>
<path fill-rule="evenodd" clip-rule="evenodd" d="M54.9593 21.4777C54.9189 20.0136 54.9055 18.5427 54.9189 17.0648C54.1091 17.0648 53.2994 17.0648 52.4897 17.0648C52.5031 18.5427 52.4897 20.0136 52.4492 21.4777C52.4492 19.9932 52.4492 18.5088 52.4492 17.0243C53.2861 17.0243 54.1225 17.0243 54.9593 17.0243C54.9593 18.5088 54.9593 19.9932 54.9593 21.4777Z" fill="#FB2027"/>
<path opacity="0.102" fill-rule="evenodd" clip-rule="evenodd" d="M13.2593 16.6599C13.3557 16.9132 13.4097 17.1831 13.4212 17.4696C13.3784 17.3089 13.3312 17.1469 13.2795 16.9838C13.2594 16.8767 13.2527 16.7687 13.2593 16.6599Z" fill="#EE9698"/>
<path fill-rule="evenodd" clip-rule="evenodd" d="M9.45361 17.1053C9.47859 17.1098 9.49884 17.1233 9.51434 17.1458C9.54827 17.2815 9.58199 17.4164 9.61556 17.5506C9.59058 17.5461 9.57033 17.5327 9.55483 17.5101C9.5209 17.3744 9.48718 17.2395 9.45361 17.1053Z" fill="#8D1216"/>
<path fill-rule="evenodd" clip-rule="evenodd" d="M29.0487 17.2672C29.0382 17.3794 28.9977 17.4739 28.9272 17.5506C28.9377 17.4384 28.9782 17.3439 29.0487 17.2672Z" fill="#8E1216"/>
<path opacity="0.671" fill-rule="evenodd" clip-rule="evenodd" d="M16.2144 16.8624C16.3186 17.0446 16.4199 17.2335 16.518 17.4292C16.7102 17.6947 16.9194 17.9376 17.1455 18.1579C16.697 17.8285 16.3866 17.3967 16.2144 16.8624Z" fill="#F0898B"/>
<path opacity="0.345" fill-rule="evenodd" clip-rule="evenodd" d="M29.5749 17.4291C29.5267 17.6732 29.4458 17.9026 29.332 18.1174C29.382 17.8727 29.463 17.6433 29.5749 17.4291Z" fill="#9A9999"/>
<path opacity="0.51" fill-rule="evenodd" clip-rule="evenodd" d="M9.04834 17.6316C9.11206 17.6965 9.13907 17.7774 9.12931 17.8745C9.07919 17.8051 9.05219 17.7241 9.04834 17.6316Z" fill="#7F7D7D"/>
<path fill-rule="evenodd" clip-rule="evenodd" d="M13.4209 17.4696C13.4977 17.5894 13.5381 17.7244 13.5424 17.8745C13.4958 17.8627 13.4688 17.829 13.4614 17.7732C13.4347 17.6736 13.4212 17.5724 13.4209 17.4696Z" fill="#F26C6D"/>
<path opacity="0.424" fill-rule="evenodd" clip-rule="evenodd" d="M13.5425 17.8745C13.6071 17.9696 13.6476 18.0775 13.6639 18.1984C13.5751 18.1165 13.5346 18.0086 13.5425 17.8745Z" fill="#EF888A"/>
<path opacity="0.529" fill-rule="evenodd" clip-rule="evenodd" d="M9.12939 17.8745C9.26045 18.1322 9.36838 18.402 9.45328 18.6842C9.3064 18.4331 9.19842 18.1631 9.12939 17.8745Z" fill="#848282"/>
<path opacity="0.973" fill-rule="evenodd" clip-rule="evenodd" d="M21.8018 18.1174C21.9358 18.1841 22.0437 18.2786 22.1256 18.4008C21.9935 18.3363 21.8855 18.2418 21.8018 18.1174Z" fill="#EF8385"/>
<path fill-rule="evenodd" clip-rule="evenodd" d="M17.1455 18.1579C17.2804 18.1713 17.3748 18.2387 17.4289 18.3603C17.3127 18.3226 17.2182 18.2551 17.1455 18.1579Z" fill="#F07274"/>
<path opacity="0.784" fill-rule="evenodd" clip-rule="evenodd" d="M21.8014 18.1174C21.7514 18.1085 21.7109 18.0815 21.6799 18.0364C21.4927 18.3045 21.2498 18.4934 20.9512 18.6032C21.1834 18.4321 21.3993 18.2364 21.5989 18.0162C21.6994 17.9854 21.7668 18.0192 21.8014 18.1174Z" fill="#EE888A"/>
<path opacity="0.173" fill-rule="evenodd" clip-rule="evenodd" d="M13.664 18.1984C13.714 18.2854 13.7545 18.3798 13.7854 18.4818C13.6915 18.4174 13.651 18.3229 13.664 18.1984Z" fill="#EE9395"/>
<path opacity="0.4" fill-rule="evenodd" clip-rule="evenodd" d="M29.3319 18.1579C29.3254 18.2248 29.2984 18.2788 29.2509 18.3198C29.2399 18.2437 29.2669 18.1898 29.3319 18.1579Z" fill="#999797"/>
<path fill-rule="evenodd" clip-rule="evenodd" d="M17.4697 18.4008C17.6255 18.4159 17.747 18.4834 17.8341 18.6032C17.7013 18.5503 17.5798 18.4829 17.4697 18.4008Z" fill="#EF7B7E"/>
<path fill-rule="evenodd" clip-rule="evenodd" d="M22.1255 18.4008C22.3369 18.5445 22.5258 18.7199 22.6923 18.9271C22.4777 18.78 22.2888 18.6046 22.1255 18.4008Z" fill="#EE7F80"/>
<path opacity="0.498" fill-rule="evenodd" clip-rule="evenodd" d="M17.834 18.6033C17.9143 18.5894 17.9683 18.6164 17.9959 18.6842C17.9198 18.6952 17.8658 18.6682 17.834 18.6033Z" fill="#EF8B8D"/>
<path opacity="0.078" fill-rule="evenodd" clip-rule="evenodd" d="M20.9515 18.6032C20.9324 18.6601 20.8919 18.6871 20.8301 18.6842C20.8431 18.6215 20.8836 18.5945 20.9515 18.6032Z" fill="#F29194"/>
<path opacity="0.765" fill-rule="evenodd" clip-rule="evenodd" d="M13.7856 18.5223C13.8551 18.6358 13.909 18.7572 13.9476 18.8867C13.8482 18.7928 13.7942 18.6713 13.7856 18.5223Z" fill="#EE8F91"/>
<path opacity="0.161" fill-rule="evenodd" clip-rule="evenodd" d="M29.2511 18.3198C29.1819 18.5823 29.0739 18.8252 28.9272 19.0486C29.0122 18.7929 29.1202 18.55 29.2511 18.3198Z" fill="#939191"/>
<path opacity="0.992" fill-rule="evenodd" clip-rule="evenodd" d="M18.1172 18.7247C18.4143 18.7676 18.6977 18.8351 18.9674 18.9271C18.661 18.928 18.3776 18.8605 18.1172 18.7247Z" fill="#F07A7C"/>
<path opacity="0.396" fill-rule="evenodd" clip-rule="evenodd" d="M20.83 18.6842C20.5215 18.8568 20.1841 18.9378 19.8179 18.9271C20.1437 18.8303 20.4811 18.7493 20.83 18.6842Z" fill="#EF7D7E"/>
<path opacity="0.129" fill-rule="evenodd" clip-rule="evenodd" d="M9.45361 18.6842C9.55738 18.8328 9.63835 18.9947 9.69653 19.17C9.57758 19.0305 9.49661 18.8685 9.45361 18.6842Z" fill="#8F8D8D"/>
<path opacity="0.098" fill-rule="evenodd" clip-rule="evenodd" d="M18.9678 18.9271C19.2512 18.9271 19.5346 18.9271 19.818 18.9271C19.6734 18.9839 19.5182 19.0109 19.3524 19.0081C19.2116 19.0151 19.0834 18.9881 18.9678 18.9271Z" fill="#E77F83"/>
<path opacity="0.553" fill-rule="evenodd" clip-rule="evenodd" d="M13.9473 18.8867C14.0227 18.9835 14.0767 19.0914 14.1092 19.2105C14.0024 19.1303 13.9485 19.0224 13.9473 18.8867Z" fill="#EF8988"/>
<path opacity="0.965" fill-rule="evenodd" clip-rule="evenodd" d="M22.7734 19.0081C22.9713 19.1382 23.1468 19.3002 23.2998 19.4939C23.0998 19.3616 22.9243 19.1996 22.7734 19.0081Z" fill="#EF888A"/>
<path opacity="0.153" fill-rule="evenodd" clip-rule="evenodd" d="M9.69623 19.17C9.74376 19.2111 9.77072 19.2651 9.7772 19.332C9.71226 19.3001 9.68525 19.2462 9.69623 19.17Z" fill="#A09E9E"/>
<path opacity="0.71" fill-rule="evenodd" clip-rule="evenodd" d="M14.1094 19.2105C14.1743 19.2424 14.2013 19.2963 14.1903 19.3725C14.1428 19.3314 14.1159 19.2774 14.1094 19.2105Z" fill="#EE9193"/>
<path opacity="0.259" fill-rule="evenodd" clip-rule="evenodd" d="M28.8865 19.1296C28.8497 19.271 28.7822 19.3924 28.6841 19.494C28.7209 19.3526 28.7884 19.2311 28.8865 19.1296Z" fill="#9F9D9D"/>
<path opacity="0.424" fill-rule="evenodd" clip-rule="evenodd" d="M9.77734 19.332C9.86188 19.4063 9.91585 19.5008 9.93929 19.6154C9.85475 19.541 9.80079 19.4466 9.77734 19.332Z" fill="#8E8C8C"/>
<path opacity="0.094" fill-rule="evenodd" clip-rule="evenodd" d="M14.1904 19.3725C14.2834 19.4224 14.3374 19.5034 14.3524 19.6154C14.2661 19.5561 14.2122 19.4752 14.1904 19.3725Z" fill="#EF898B"/>
<path fill-rule="evenodd" clip-rule="evenodd" d="M23.4209 19.6154C23.4992 19.6417 23.5802 19.6552 23.6638 19.6558C23.6704 19.7379 23.6636 19.8189 23.6436 19.8988C23.6105 19.9523 23.5633 19.9793 23.5019 19.9797C23.5365 19.938 23.5635 19.8908 23.5828 19.838C23.5363 19.7578 23.4823 19.6836 23.4209 19.6154Z" fill="#F05C5A"/>
<path opacity="0.165" fill-rule="evenodd" clip-rule="evenodd" d="M28.6437 19.5749C28.6466 19.6367 28.6196 19.6772 28.5627 19.6963C28.5598 19.6345 28.5868 19.594 28.6437 19.5749Z" fill="#999797"/>
<path opacity="0.365" fill-rule="evenodd" clip-rule="evenodd" d="M9.93945 19.6154C10.024 19.6897 10.078 19.7841 10.1014 19.8988C10.0169 19.8244 9.96289 19.73 9.93945 19.6154Z" fill="#929090"/>
<path opacity="0.094" fill-rule="evenodd" clip-rule="evenodd" d="M14.3521 19.6154C14.445 19.6653 14.499 19.7462 14.514 19.8583C14.4405 19.7928 14.3865 19.7118 14.3521 19.6154Z" fill="#EE9496"/>
<path opacity="0.176" fill-rule="evenodd" clip-rule="evenodd" d="M28.5221 19.7773C28.5251 19.8392 28.4981 19.8797 28.4411 19.8988C28.4382 19.837 28.4652 19.7965 28.5221 19.7773Z" fill="#949393"/>
<path opacity="0.22" fill-rule="evenodd" clip-rule="evenodd" d="M10.1013 19.8988C10.1582 19.918 10.1852 19.9584 10.1823 20.0203C10.1253 20.0011 10.0983 19.9606 10.1013 19.8988Z" fill="#A09E9E"/>
<path opacity="0.788" fill-rule="evenodd" clip-rule="evenodd" d="M14.5142 19.8583C14.6097 19.9135 14.6772 19.9945 14.7166 20.1012C14.5953 20.0618 14.5278 19.9808 14.5142 19.8583Z" fill="#EF8283"/>
<path opacity="0.306" fill-rule="evenodd" clip-rule="evenodd" d="M28.4413 19.8988C28.4312 19.9868 28.3907 20.0543 28.3198 20.1012C28.3299 20.0132 28.3704 19.9457 28.4413 19.8988Z" fill="#908E8E"/>
<path opacity="0.165" fill-rule="evenodd" clip-rule="evenodd" d="M10.1823 20.0203C10.2393 20.0394 10.2663 20.0799 10.2633 20.1417C10.2064 20.1226 10.1794 20.0821 10.1823 20.0203Z" fill="#959393"/>
<path opacity="0.976" fill-rule="evenodd" clip-rule="evenodd" d="M23.5022 19.9797C23.4538 20.1361 23.3594 20.2576 23.2188 20.3441C23.298 20.2108 23.3925 20.0894 23.5022 19.9797Z" fill="#EF8688"/>
<path opacity="0.192" fill-rule="evenodd" clip-rule="evenodd" d="M28.32 20.1012C28.3229 20.163 28.2959 20.2035 28.239 20.2227C28.236 20.1608 28.263 20.1203 28.32 20.1012Z" fill="#A3A2A2"/>
<path opacity="0.231" fill-rule="evenodd" clip-rule="evenodd" d="M10.2632 20.1417C10.3371 20.2084 10.3911 20.2894 10.4251 20.3846C10.3311 20.3319 10.2772 20.251 10.2632 20.1417Z" fill="#949292"/>
<path opacity="0.133" fill-rule="evenodd" clip-rule="evenodd" d="M28.2386 20.2227C28.2365 20.309 28.196 20.3629 28.1172 20.3846C28.1385 20.3146 28.179 20.2606 28.2386 20.2227Z" fill="#AAA9A9"/>
<path opacity="0.024" fill-rule="evenodd" clip-rule="evenodd" d="M10.425 20.3846C10.4819 20.4038 10.509 20.4443 10.506 20.5061C10.4491 20.487 10.4221 20.4465 10.425 20.3846Z" fill="#A5A4A4"/>
<path opacity="0.078" fill-rule="evenodd" clip-rule="evenodd" d="M28.1176 20.3846C28.1074 20.4727 28.0669 20.5401 27.9961 20.5871C28.0062 20.4991 28.0467 20.4316 28.1176 20.3846Z" fill="#949393"/>
<path opacity="0.953" fill-rule="evenodd" clip-rule="evenodd" d="M14.7168 20.1012C14.9015 20.2688 15.0769 20.4442 15.2431 20.6275C15.1855 20.6191 15.1316 20.5988 15.0812 20.5668C14.9839 20.4582 14.8827 20.357 14.7775 20.2631C14.7455 20.2127 14.7253 20.1588 14.7168 20.1012Z" fill="#F27A7D"/>
<path opacity="0.031" fill-rule="evenodd" clip-rule="evenodd" d="M10.5059 20.5061C10.5772 20.537 10.6177 20.591 10.6273 20.668C10.556 20.6372 10.5155 20.5832 10.5059 20.5061Z" fill="#949292"/>
<path opacity="0.059" fill-rule="evenodd" clip-rule="evenodd" d="M27.9152 20.668C27.9181 20.7299 27.8911 20.7703 27.8342 20.7895C27.8312 20.7277 27.8583 20.6872 27.9152 20.668Z" fill="#959494"/>
<path opacity="0.063" fill-rule="evenodd" clip-rule="evenodd" d="M10.6277 20.668C10.6846 20.6872 10.7116 20.7277 10.7086 20.7895C10.6517 20.7703 10.6247 20.7299 10.6277 20.668Z" fill="#A5A3A3"/>
<path opacity="0.18" fill-rule="evenodd" clip-rule="evenodd" d="M15.2832 20.668C15.388 20.7052 15.469 20.7727 15.5261 20.8705C15.4206 20.8374 15.3396 20.7699 15.2832 20.668Z" fill="#EE8A8C"/>
<path opacity="0.02" fill-rule="evenodd" clip-rule="evenodd" d="M27.7936 20.83C27.7965 20.8918 27.7695 20.9323 27.7126 20.9514C27.7097 20.8896 27.7367 20.8491 27.7936 20.83Z" fill="#9C9B9B"/>
<path opacity="0.067" fill-rule="evenodd" clip-rule="evenodd" d="M10.7893 20.8704C10.8462 20.8896 10.8732 20.9301 10.8703 20.9919C10.8133 20.9727 10.7863 20.9322 10.7893 20.8704Z" fill="#A2A0A0"/>
<path opacity="0.976" fill-rule="evenodd" clip-rule="evenodd" d="M22.8947 20.668C22.6777 20.94 22.4078 21.1289 22.085 21.2348C22.3545 21.046 22.6244 20.8571 22.8947 20.668Z" fill="#F18284"/>
<path opacity="0.455" fill-rule="evenodd" clip-rule="evenodd" d="M10.8706 20.9919C10.9795 21.0604 11.0605 21.1549 11.1135 21.2753C11.0034 21.2057 10.9225 21.1112 10.8706 20.9919Z" fill="#8E8C8C"/>
<path opacity="0.027" fill-rule="evenodd" clip-rule="evenodd" d="M27.6317 21.0324C27.6221 21.1095 27.5816 21.1635 27.5103 21.1944C27.5199 21.1173 27.5604 21.0633 27.6317 21.0324Z" fill="#9A9898"/>
<path opacity="0.961" fill-rule="evenodd" clip-rule="evenodd" d="M15.5264 20.8704C15.7358 20.9818 15.9383 21.1033 16.1337 21.2348C15.9669 21.1958 15.8117 21.1283 15.6681 21.0324C15.6113 20.986 15.5641 20.932 15.5264 20.8704Z" fill="#EE7F80"/>
<path opacity="0.561" fill-rule="evenodd" clip-rule="evenodd" d="M16.1338 21.2348C16.2471 21.2814 16.355 21.3353 16.4577 21.3967C16.3162 21.3955 16.2082 21.3415 16.1338 21.2348Z" fill="#EE7F80"/>
<path opacity="0.957" fill-rule="evenodd" clip-rule="evenodd" d="M22.085 21.2348C22.0667 21.2736 22.0397 21.3074 22.004 21.336C21.8882 21.4024 21.7667 21.4497 21.6396 21.4777C21.7775 21.3819 21.9259 21.3009 22.085 21.2348Z" fill="#F1888A"/>
<path opacity="0.039" fill-rule="evenodd" clip-rule="evenodd" d="M11.1943 21.3563C11.3054 21.4267 11.3864 21.5212 11.4373 21.6397C11.3262 21.5693 11.2452 21.4748 11.1943 21.3563Z" fill="#8D8B8B"/>
<path opacity="0.082" fill-rule="evenodd" clip-rule="evenodd" d="M27.4695 21.2348C27.4323 21.3396 27.3648 21.4206 27.2671 21.4777C27.3043 21.3729 27.3718 21.2919 27.4695 21.2348Z" fill="#9F9D9D"/>
<path fill-rule="evenodd" clip-rule="evenodd" d="M16.4575 21.3968C16.5613 21.4206 16.6557 21.4611 16.7409 21.5182C16.6163 21.5312 16.5219 21.4908 16.4575 21.3968Z" fill="#F07D80"/>
<path opacity="0.969" fill-rule="evenodd" clip-rule="evenodd" d="M16.7407 21.5182C16.8677 21.5224 16.9756 21.5628 17.0646 21.6396C16.9306 21.6475 16.8226 21.607 16.7407 21.5182Z" fill="#F07677"/>
<path opacity="0.788" fill-rule="evenodd" clip-rule="evenodd" d="M11.5991 21.8016C11.8262 21.9611 12.0286 22.1501 12.2064 22.3684C11.9794 22.209 11.7769 22.02 11.5991 21.8016Z" fill="#7A7878"/>
<path opacity="0.714" fill-rule="evenodd" clip-rule="evenodd" d="M17.0649 21.6396C17.3983 21.6874 17.7222 21.7549 18.0366 21.8421C17.7643 21.8305 17.4944 21.7967 17.2269 21.7409C17.1485 21.7359 17.0945 21.7022 17.0649 21.6396Z" fill="#F0797A"/>
<path opacity="0.714" fill-rule="evenodd" clip-rule="evenodd" d="M21.3969 21.5587C21.233 21.6509 21.0576 21.7251 20.8706 21.7814C20.6969 21.8188 20.5214 21.839 20.3442 21.8421C20.6925 21.748 21.0433 21.6535 21.3969 21.5587Z" fill="#EE8285"/>
<path opacity="0.067" fill-rule="evenodd" clip-rule="evenodd" d="M18.0366 21.8421C18.6972 21.8773 19.3585 21.8908 20.0204 21.8826C19.9895 21.9137 19.9491 21.9339 19.899 21.9433C19.2908 21.9728 18.6835 21.9593 18.0771 21.9028C18.0546 21.8873 18.0411 21.8671 18.0366 21.8421Z" fill="#EF8386"/>
<path opacity="0.039" fill-rule="evenodd" clip-rule="evenodd" d="M26.4574 22.2875C26.4382 22.3444 26.3978 22.3714 26.3359 22.3684C26.3551 22.3115 26.3956 22.2845 26.4574 22.2875Z" fill="#ACAAAA"/>
<path opacity="0.886" fill-rule="evenodd" clip-rule="evenodd" d="M12.2065 22.3684C12.3114 22.4056 12.3923 22.4731 12.4495 22.5708C12.3446 22.5336 12.2637 22.4661 12.2065 22.3684Z" fill="#7C7B7B"/>
<path opacity="0.055" fill-rule="evenodd" clip-rule="evenodd" d="M26.2147 22.4899C26.1838 22.5612 26.1298 22.6017 26.0527 22.6113C26.0836 22.54 26.1376 22.4995 26.2147 22.4899Z" fill="#9A9898"/>
<path opacity="0.718" fill-rule="evenodd" clip-rule="evenodd" d="M12.4492 22.5709C12.5403 22.5943 12.6077 22.6483 12.6516 22.7328C12.5606 22.7093 12.4931 22.6554 12.4492 22.5709Z" fill="#7D7C7C"/>
<path opacity="0.016" fill-rule="evenodd" clip-rule="evenodd" d="M26.012 22.6518C25.9812 22.7231 25.9272 22.7636 25.8501 22.7733C25.8809 22.7019 25.935 22.6614 26.012 22.6518Z" fill="#979696"/>
<path opacity="0.51" fill-rule="evenodd" clip-rule="evenodd" d="M12.6519 22.7328C12.7429 22.7563 12.8104 22.8102 12.8543 22.8947C12.7632 22.8712 12.6958 22.8173 12.6519 22.7328Z" fill="#878585"/>
<path opacity="0.043" fill-rule="evenodd" clip-rule="evenodd" d="M25.8099 22.8138C25.7908 22.8707 25.7503 22.8977 25.6885 22.8947C25.7076 22.8378 25.7481 22.8108 25.8099 22.8138Z" fill="#9E9C9C"/>
<path opacity="0.686" fill-rule="evenodd" clip-rule="evenodd" d="M12.8545 22.8947C12.9163 22.8918 12.9568 22.9188 12.9759 22.9757C12.9141 22.9787 12.8736 22.9517 12.8545 22.8947Z" fill="#878585"/>
<path opacity="0.012" fill-rule="evenodd" clip-rule="evenodd" d="M25.6477 22.9352C25.595 23.0292 25.514 23.0832 25.4048 23.0972C25.4715 23.0233 25.5524 22.9692 25.6477 22.9352Z" fill="#959393"/>
<path opacity="0.529" fill-rule="evenodd" clip-rule="evenodd" d="M12.9756 22.9757C13.0527 22.9853 13.1067 23.0258 13.1375 23.0972C13.0604 23.0875 13.0064 23.047 12.9756 22.9757Z" fill="#807E7E"/>
<path opacity="0.38" fill-rule="evenodd" clip-rule="evenodd" d="M13.1377 23.0971C13.1995 23.0942 13.24 23.1212 13.2592 23.1781C13.1973 23.1811 13.1568 23.1541 13.1377 23.0971Z" fill="#8C8B8B"/>
<path opacity="0.012" fill-rule="evenodd" clip-rule="evenodd" d="M25.3641 23.1377C25.345 23.1946 25.3045 23.2216 25.2427 23.2186C25.2618 23.1617 25.3023 23.1347 25.3641 23.1377Z" fill="#AEACAC"/>
<path opacity="0.463" fill-rule="evenodd" clip-rule="evenodd" d="M13.2593 23.1781C13.3211 23.1752 13.3616 23.2022 13.3807 23.2591C13.3189 23.2621 13.2784 23.2351 13.2593 23.1781Z" fill="#888787"/>
<path opacity="0.329" fill-rule="evenodd" clip-rule="evenodd" d="M13.3804 23.2591C13.4422 23.2562 13.4827 23.2832 13.5018 23.3401C13.44 23.3431 13.3995 23.3161 13.3804 23.2591Z" fill="#858383"/>
<path opacity="0.012" fill-rule="evenodd" clip-rule="evenodd" d="M25.1214 23.2996C25.0745 23.3705 25.007 23.411 24.9189 23.4211C24.9659 23.3502 25.0334 23.3097 25.1214 23.2996Z" fill="#9C9A9A"/>
<path opacity="0.31" fill-rule="evenodd" clip-rule="evenodd" d="M13.502 23.3401C13.5638 23.3371 13.6043 23.3641 13.6234 23.421C13.5616 23.424 13.5211 23.397 13.502 23.3401Z" fill="#949292"/>
<path opacity="0.01" fill-rule="evenodd" clip-rule="evenodd" d="M24.9188 23.4211C24.8997 23.478 24.8592 23.505 24.7974 23.502C24.8165 23.4451 24.857 23.4181 24.9188 23.4211Z" fill="#969494"/>
<path opacity="0.357" fill-rule="evenodd" clip-rule="evenodd" d="M13.7046 23.4615C13.7664 23.4586 13.8069 23.4856 13.826 23.5425C13.7642 23.5454 13.7237 23.5184 13.7046 23.4615Z" fill="#949393"/>
<path opacity="0.227" fill-rule="evenodd" clip-rule="evenodd" d="M13.9067 23.583C13.9948 23.5931 14.0622 23.6336 14.1092 23.7045C14.0212 23.6943 13.9537 23.6539 13.9067 23.583Z" fill="#979595"/>
<path fill-rule="evenodd" clip-rule="evenodd" d="M15.2427 23.6235C15.3426 23.6338 15.4235 23.6743 15.4856 23.7449C15.3857 23.7346 15.3047 23.6941 15.2427 23.6235Z" fill="#791013"/>
<path opacity="0.22" fill-rule="evenodd" clip-rule="evenodd" d="M24.6357 23.583C24.5374 23.6663 24.4295 23.7405 24.3118 23.8057C24.2501 23.8465 24.1826 23.8668 24.1094 23.8664C24.2651 23.7412 24.4405 23.6467 24.6357 23.583Z" fill="#949292"/>
<path opacity="0.102" fill-rule="evenodd" clip-rule="evenodd" d="M14.4331 23.8664C14.5 23.8729 14.554 23.8998 14.595 23.9474C14.5189 23.9583 14.465 23.9313 14.4331 23.8664Z" fill="#9E9D9D"/>
<path opacity="0.141" fill-rule="evenodd" clip-rule="evenodd" d="M24.1091 23.8664C24.052 23.9489 23.971 23.9894 23.8662 23.9879C23.9343 23.9268 24.0152 23.8863 24.1091 23.8664Z" fill="#969595"/>
<path fill-rule="evenodd" clip-rule="evenodd" d="M14.5952 23.9474C14.7123 23.9284 14.7933 23.9689 14.8381 24.0688C14.7442 24.0489 14.6633 24.0084 14.5952 23.9474Z" fill="#585757"/>
<path fill-rule="evenodd" clip-rule="evenodd" d="M16.3359 24.0283C16.4498 24.0303 16.5578 24.0573 16.6598 24.1093C16.6868 24.0823 16.7138 24.0553 16.7408 24.0283C16.8062 24.0548 16.8737 24.075 16.9432 24.089C16.9027 24.1025 16.8623 24.1161 16.8218 24.1295C16.9118 24.1524 16.9927 24.1862 17.0647 24.2307C16.8075 24.1974 16.5646 24.1299 16.3359 24.0283Z" fill="#BC181E"/>
<path opacity="0.275" fill-rule="evenodd" clip-rule="evenodd" d="M14.8379 24.0688C14.921 24.0648 14.9885 24.0918 15.0403 24.1498C14.9572 24.1537 14.8897 24.1267 14.8379 24.0688Z" fill="#979595"/>
<path opacity="0.894" fill-rule="evenodd" clip-rule="evenodd" d="M15.0405 24.1498C15.1616 24.1363 15.2561 24.1768 15.3239 24.2713C15.213 24.2629 15.1185 24.2224 15.0405 24.1498Z" fill="#6A6969"/>
<path opacity="0.145" fill-rule="evenodd" clip-rule="evenodd" d="M23.8665 23.9879C23.668 24.1128 23.4521 24.2073 23.2188 24.2713C23.4186 24.1459 23.6345 24.0515 23.8665 23.9879Z" fill="#8D8C8C"/>
<path opacity="0.624" fill-rule="evenodd" clip-rule="evenodd" d="M23.2185 24.2713C23.1667 24.3292 23.0992 24.3562 23.0161 24.3522C23.0621 24.2829 23.1296 24.2559 23.2185 24.2713Z" fill="#7F7E7E"/>
<path fill-rule="evenodd" clip-rule="evenodd" d="M17.2266 24.2712C18.1124 24.3915 19.0031 24.4455 19.8986 24.4332C19.9661 24.4332 20.0336 24.4332 20.1011 24.4332C19.1351 24.5212 18.1769 24.4672 17.2266 24.2712Z" fill="#851116"/>
<path fill-rule="evenodd" clip-rule="evenodd" d="M21.235 24.2712C20.8669 24.3565 20.489 24.4105 20.1014 24.4332C20.0339 24.4332 19.9664 24.4332 19.8989 24.4332C20.3345 24.345 20.7798 24.291 21.235 24.2712Z" fill="#AF161B"/>
<path opacity="0.204" fill-rule="evenodd" clip-rule="evenodd" d="M23.0164 24.3522C22.9515 24.416 22.8705 24.443 22.7734 24.4332C22.8428 24.3831 22.9238 24.3561 23.0164 24.3522Z" fill="#999898"/>
<path opacity="0.098" fill-rule="evenodd" clip-rule="evenodd" d="M15.5264 24.3522C15.6189 24.3561 15.6999 24.3831 15.7693 24.4332C15.6722 24.443 15.5912 24.416 15.5264 24.3522Z" fill="#9D9C9C"/>
<path opacity="0.514" fill-rule="evenodd" clip-rule="evenodd" d="M22.7732 24.4332C22.7153 24.4752 22.6478 24.5022 22.5708 24.5142C22.6168 24.4448 22.6842 24.4178 22.7732 24.4332Z" fill="#828080"/>
<path opacity="0.357" fill-rule="evenodd" clip-rule="evenodd" d="M15.769 24.4332C16.1545 24.5295 16.5323 24.6374 16.9026 24.7571C16.5064 24.6987 16.1286 24.5907 15.769 24.4332Z" fill="#8B8A8A"/>
<path opacity="0.553" fill-rule="evenodd" clip-rule="evenodd" d="M22.5304 24.5142C21.946 24.731 21.3387 24.8659 20.7085 24.919C21.3137 24.7952 21.921 24.6602 22.5304 24.5142Z" fill="#8C8B8B"/>
<path opacity="0.435" fill-rule="evenodd" clip-rule="evenodd" d="M16.9028 24.7571C17.2887 24.8024 17.6666 24.8699 18.0364 24.9595C17.6458 24.9349 17.2679 24.8675 16.9028 24.7571Z" fill="#807F7F"/>
<path opacity="0.102" fill-rule="evenodd" clip-rule="evenodd" d="M20.7086 24.919C20.4352 24.9887 20.1518 25.0157 19.8584 25C20.1344 24.9569 20.4178 24.9299 20.7086 24.919Z" fill="#979595"/>
</svg>
