<svg width="21" height="20" viewBox="0 0 21 20" fill="none" xmlns="http://www.w3.org/2000/svg">
<path d="M10.2502 10C12.5513 10 14.4168 8.13454 14.4168 5.83335C14.4168 3.53217 12.5513 1.66669 10.2502 1.66669C7.94898 1.66669 6.0835 3.53217 6.0835 5.83335C6.0835 8.13454 7.94898 10 10.2502 10Z" stroke="#E58A00" stroke-width="1.5" stroke-linecap="round" stroke-linejoin="round"/>
<path opacity="0.4" d="M3.0918 18.3333C3.0918 15.1083 6.30013 12.5 10.2501 12.5C11.0501 12.5 11.8251 12.6083 12.5501 12.8083" stroke="#E58A00" stroke-width="1.5" stroke-linecap="round" stroke-linejoin="round"/>
<path d="M18.5832 15C18.5832 15.2667 18.5498 15.525 18.4832 15.775C18.4082 16.1083 18.2748 16.4334 18.0998 16.7167C17.5248 17.6834 16.4665 18.3334 15.2498 18.3334C14.3915 18.3334 13.6165 18.0083 13.0332 17.475C12.7832 17.2583 12.5665 17 12.3998 16.7167C12.0915 16.2167 11.9165 15.625 11.9165 15C11.9165 14.1 12.2748 13.275 12.8582 12.675C13.4665 12.05 14.3165 11.6667 15.2498 11.6667C16.2332 11.6667 17.1248 12.0917 17.7248 12.775C18.2582 13.3667 18.5832 14.15 18.5832 15Z" stroke="#E58A00" stroke-width="1.5" stroke-miterlimit="10" stroke-linecap="round" stroke-linejoin="round"/>
<path d="M16.4916 14.9833H14.0083" stroke="#E58A00" stroke-width="1.5" stroke-miterlimit="10" stroke-linecap="round" stroke-linejoin="round"/>
<path d="M15.25 13.7667V16.2583" stroke="#E58A00" stroke-width="1.5" stroke-miterlimit="10" stroke-linecap="round" stroke-linejoin="round"/>
</svg>
