<svg width="20" height="20" viewBox="0 0 20 20" fill="none" xmlns="http://www.w3.org/2000/svg">
<path opacity="0.4" d="M10.8335 7.5H5.8335" stroke="#4680FF" stroke-width="1.5" stroke-linecap="round" stroke-linejoin="round"/>
<path d="M18.3333 9.14165V10.8584C18.3333 11.3167 17.9667 11.6917 17.5 11.7083H15.8667C14.9667 11.7083 14.1417 11.05 14.0667 10.15C14.0167 9.625 14.2167 9.13333 14.5667 8.79167C14.875 8.475 15.3 8.29169 15.7667 8.29169H17.5C17.9667 8.30835 18.3333 8.68332 18.3333 9.14165Z" stroke="#4680FF" stroke-width="1.5" stroke-linecap="round" stroke-linejoin="round"/>
<path d="M14.5665 8.79168C14.2165 9.13334 14.0165 9.62501 14.0665 10.15C14.1415 11.05 14.9665 11.7083 15.8665 11.7083H17.4998V12.9167C17.4998 15.4167 15.8332 17.0834 13.3332 17.0834H5.83317C3.33317 17.0834 1.6665 15.4167 1.6665 12.9167V7.08335C1.6665 4.81669 3.03317 3.23335 5.15817 2.96668C5.37484 2.93335 5.59984 2.91669 5.83317 2.91669H13.3332C13.5498 2.91669 13.7582 2.92501 13.9582 2.95834C16.1082 3.20834 17.4998 4.80002 17.4998 7.08335V8.2917H15.7665C15.2998 8.2917 14.8748 8.47501 14.5665 8.79168Z" stroke="#4680FF" stroke-width="1.5" stroke-linecap="round" stroke-linejoin="round"/>
</svg>
